<svg width="25" height="24" viewBox="0 0 25 24" fill="none" xmlns="http://www.w3.org/2000/svg">
<path d="M5.59961 23H19.5996C20.7042 23 21.5996 22.1046 21.5996 21V7.82843C21.5996 7.29799 21.3889 6.78929 21.0138 6.41421L16.1854 1.58579C15.8103 1.21071 15.3016 1 14.7712 1H5.59961C4.49504 1 3.59961 1.89543 3.59961 3V21C3.59961 22.1046 4.49504 23 5.59961 23Z" fill="#E8EAED"/>
<path d="M11.4668 12C11.0453 12 10.666 11.7657 10.4658 11.3822L9.45419 9.39023H8.38991C7.95788 9.39023 7.59961 9.02806 7.59961 8.59133C7.59961 8.15459 7.95788 7.79242 8.38991 7.79242H9.61225C10.1075 7.79242 10.5606 8.06937 10.7819 8.51676L11.3404 9.62458L12.5522 5.33178C12.6892 4.83113 13.1107 4.47961 13.6481 4.50092C14.1644 4.50092 14.5964 4.85244 14.7229 5.36374L15.3235 7.79242H16.8093C17.2413 7.79242 17.5996 8.15459 17.5996 8.59133C17.5996 9.02806 17.2413 9.39023 16.8093 9.39023H15.1128C14.5016 9.39023 13.9853 8.9748 13.8378 8.37829L13.5954 7.4196L12.5311 11.1798C12.4047 11.6272 12.0253 11.9574 11.5617 12C11.5195 12 11.4879 12 11.4458 12H11.4668Z" fill="#00C785"/>
<path d="M6.59961 19.1001C6.59961 18.603 6.96898 18.2001 7.42461 18.2001H14.7746C15.2302 18.2001 15.5996 18.603 15.5996 19.1001C15.5996 19.5971 15.2302 20 14.7746 20H7.42461C6.96898 20 6.59961 19.5971 6.59961 19.1001Z" fill="#505862"/>
<path d="M6.59961 15.6C6.59961 15.1029 6.96897 14.7 7.42461 14.7H17.7746C18.2302 14.7 18.5996 15.1029 18.5996 15.6C18.5996 16.0971 18.2302 16.5 17.7746 16.5H7.42461C6.96897 16.5 6.59961 16.0971 6.59961 15.6Z" fill="#505862"/>
<path d="M21.5996 7L15.5996 1V5.5C15.5996 6.32843 16.2712 7 17.0996 7H21.5996Z" fill="#AFB6C0"/>
</svg>
