<svg width="24" height="24" viewBox="0 0 24 24" fill="none" xmlns="http://www.w3.org/2000/svg">
<path d="M5 23H19C20.1046 23 21 22.1046 21 21V7.82843C21 7.29799 20.7893 6.78929 20.4142 6.41421L15.5858 1.58579C15.2107 1.21071 14.702 1 14.1716 1H5C3.89543 1 3 1.89543 3 3V21C3 22.1046 3.89543 23 5 23Z" fill="#E8EAED"/>
<path d="M6 19.1001C6 18.603 6.36937 18.2001 6.825 18.2001H14.175C14.6306 18.2001 15 18.603 15 19.1001C15 19.5971 14.6306 20 14.175 20H6.825C6.36937 20 6 19.5971 6 19.1001Z" fill="#505862"/>
<path d="M6 15.6C6 15.1029 6.36937 14.7 6.825 14.7H17.175C17.6306 14.7 18 15.1029 18 15.6C18 16.0971 17.6306 16.5 17.175 16.5H6.825C6.36937 16.5 6 16.0971 6 15.6Z" fill="#505862"/>
<path d="M9.25 5.5C9.80228 5.5 10.25 5.94772 10.25 6.5V7.5H13.75V6.5C13.75 5.94772 14.1977 5.5 14.75 5.5H15.75C16.3023 5.5 16.75 5.94772 16.75 6.5V7.25H17C17.2761 7.25 17.5 7.47386 17.5 7.75V9.25C17.5 9.52614 17.2761 9.75 17 9.75H16.75V10.5C16.75 11.0523 16.3023 11.5 15.75 11.5H14.75C14.1977 11.5 13.75 11.0523 13.75 10.5V9.5H10.25V10.5C10.25 11.0523 9.80228 11.5 9.25 11.5H8.25C7.69772 11.5 7.25 11.0523 7.25 10.5V9.75H7C6.72386 9.75 6.5 9.52614 6.5 9.25V7.75C6.5 7.47386 6.72386 7.25 7 7.25H7.25V6.5C7.25 5.94772 7.69772 5.5 8.25 5.5H9.25Z" fill="#7248D9"/>
<path d="M21 7L15 1V5.5C15 6.32843 15.6716 7 16.5 7H21Z" fill="#AFB6C0"/>
</svg>
