<svg width="25" height="24" viewBox="0 0 25 24" fill="none" xmlns="http://www.w3.org/2000/svg">
<path d="M20.4543 18.8895H20.6887C21.8535 18.8895 22.7979 17.9452 22.7979 16.7803V8.10919C22.7979 6.94431 21.8535 6 20.6887 6H8.03356C6.86868 6 5.92437 6.94431 5.92437 8.10919V16.7803C5.92437 17.9452 6.86868 18.8895 8.03356 18.8895H16.7046L19.3292 20.8581C19.7927 21.2057 20.4543 20.8749 20.4543 20.2956V18.8895Z" fill="#2F6EFF"/>
<path d="M5.2998 17.25H5.0498C3.80716 17.25 2.7998 16.2426 2.7998 15V5.75C2.7998 4.50736 3.80716 3.5 5.0498 3.5H18.5498C19.7924 3.5 20.7998 4.50736 20.7998 5.75V15C20.7998 16.2426 19.7924 17.25 18.5498 17.25H9.2998L6.5 19.3501C6.00557 19.7209 5.2998 19.368 5.2998 18.75V17.25Z" fill="#8FB4FF"/>
<path d="M13.499 6.57452C12.8987 5.99298 11.8765 6.22674 11.6081 7.00697L11.3221 7.83799C11.2821 7.95415 11.2154 8.05978 11.1271 8.14673L10.2692 8.99096C10.2308 9.02875 10.1786 9.05 10.1241 9.05H9.56719C9.35696 9.05 9.18652 9.22972 9.18652 9.43338V13.8588C9.18652 14.0624 9.35696 14.25 9.56719 14.25H14.7933C15.3286 14.25 15.792 13.8674 15.9082 13.3612L16.5163 10.7102C16.71 9.86569 16.0467 9.0646 15.1537 9.0646H13.8501C13.7191 9.0646 13.6219 8.94584 13.6505 8.82083L13.9086 7.69594C13.9933 7.32669 13.8773 6.94111 13.6013 6.67364L13.499 6.57452Z" fill="#F0F5FF"/>
<path d="M7.5498 9.45005C7.5498 9.22913 7.73296 9.05005 7.95889 9.05005H10.0043V14.25H7.95889C7.73296 14.25 7.5498 14.071 7.5498 13.85V9.45005Z" fill="#2F6EFF"/>
</svg>
