<svg width="25" height="24" viewBox="0 0 25 24" fill="none" xmlns="http://www.w3.org/2000/svg">
<circle cx="11.2002" cy="13" r="8" fill="white"/>
<path d="M20.0752 13.125C20.0752 8.15444 16.0458 4.125 11.0752 4.125C6.10463 4.125 2.0752 8.15444 2.0752 13.125C2.0752 18.0956 6.10463 22.125 11.0752 22.125C16.0458 22.125 20.0752 18.0956 20.0752 13.125ZM17.8252 13.125C17.8252 16.8529 14.8031 19.875 11.0752 19.875C7.34727 19.875 4.3252 16.8529 4.3252 13.125C4.3252 9.39707 7.34727 6.375 11.0752 6.375C14.8031 6.375 17.8252 9.39707 17.8252 13.125ZM11.0752 17.625C8.58991 17.625 6.5752 15.6103 6.5752 13.125C6.5752 10.6397 8.58991 8.625 11.0752 8.625C13.5605 8.625 15.5752 10.6397 15.5752 13.125C15.5752 15.6103 13.5605 17.625 11.0752 17.625ZM13.3252 13.125C13.3252 11.8824 12.3178 10.875 11.0752 10.875C9.83255 10.875 8.8252 11.8824 8.8252 13.125C8.8252 14.3676 9.83255 15.375 11.0752 15.375C12.3178 15.375 13.3252 14.3676 13.3252 13.125Z" fill="#FF6666"/>
<path d="M22.4932 5.43168L20.0059 4.93421L15.5617 9.37842L18.5393 9.97394C18.6623 9.99853 18.7894 9.96005 18.878 9.87139L22.6849 6.06456C22.8966 5.85277 22.7869 5.49041 22.4932 5.43168Z" fill="#2F6EFF"/>
<path d="M18.8738 1.81203L19.3712 4.29938L14.927 8.74359L14.3315 5.76595C14.3069 5.643 14.3454 5.5159 14.4341 5.42724L18.2409 1.62041C18.4527 1.40862 18.815 1.51834 18.8738 1.81203Z" fill="#2F6EFF"/>
<path d="M10.8772 13.4279C11.1861 13.7368 11.6729 13.7368 11.9818 13.4279L20.5582 4.85155C20.8671 4.54264 20.8671 4.05585 20.5582 3.74694C20.2493 3.43803 19.7625 3.43803 19.4536 3.74694L10.8772 12.3234C10.5683 12.6323 10.5683 13.1284 10.8772 13.4279Z" fill="#8FB4FF"/>
</svg>
