<svg width="25" height="24" viewBox="0 0 25 24" fill="none" xmlns="http://www.w3.org/2000/svg">
<path d="M2.40039 4C2.40039 3.44772 2.84811 3 3.40039 3H21.4004C21.9527 3 22.4004 3.44772 22.4004 4C22.4004 4.55228 21.9527 5 21.4004 5H3.40039C2.84811 5 2.40039 4.55228 2.40039 4Z" fill="#8D97A5"/>
<path d="M8.88511 22.0218C8.34122 21.9259 7.97805 21.4072 8.07395 20.8633L9.46314 12.9848C9.55904 12.441 10.0777 12.0778 10.6216 12.1737C11.1655 12.2696 11.5287 12.7882 11.4328 13.3321L10.0436 21.2106C9.94767 21.7545 9.42901 22.1177 8.88511 22.0218Z" fill="#8D97A5"/>
<path d="M15.9166 22.0218C16.4605 21.9259 16.8237 21.4072 16.7278 20.8633L15.3386 12.9848C15.2427 12.441 14.724 12.0778 14.1801 12.1737C13.6362 12.2696 13.273 12.7882 13.369 13.3321L14.7581 21.2106C14.854 21.7545 15.3727 22.1177 15.9166 22.0218Z" fill="#8D97A5"/>
<path d="M3.40039 5H21.4004V15C21.4004 16.1046 20.505 17 19.4004 17H5.40039C4.29582 17 3.40039 16.1046 3.40039 15V5Z" fill="#E8EAED"/>
<path d="M5.40039 10.75C5.40039 10.3358 5.73618 10 6.15039 10H12.6504C13.0646 10 13.4004 10.3358 13.4004 10.75C13.4004 11.1642 13.0646 11.5 12.6504 11.5H6.15039C5.73618 11.5 5.40039 11.1642 5.40039 10.75Z" fill="#505862"/>
<path d="M5.40039 13.75C5.40039 13.3358 5.73618 13 6.15039 13H12.6504C13.0646 13 13.4004 13.3358 13.4004 13.75C13.4004 14.1642 13.0646 14.5 12.6504 14.5H6.15039C5.73618 14.5 5.40039 14.1642 5.40039 13.75Z" fill="#505862"/>
<path d="M5.40039 7.75C5.40039 7.33579 5.73618 7 6.15039 7H16.6504C17.0646 7 17.4004 7.33579 17.4004 7.75C17.4004 8.16421 17.0646 8.5 16.6504 8.5H6.15039C5.73618 8.5 5.40039 8.16421 5.40039 7.75Z" fill="#505862"/>
<path d="M11.4004 3C11.4004 2.44772 11.8481 2 12.4004 2C12.9527 2 13.4004 2.44772 13.4004 3H11.4004Z" fill="#8D97A5"/>
</svg>
