<svg width="24" height="24" viewBox="0 0 24 24" fill="none" xmlns="http://www.w3.org/2000/svg">
<path d="M23 18.069C23 19.2069 19.5862 23 14.2759 23C10.6117 23 7.74793 21.9897 6.5 21.25C6.1684 21.7862 5.99039 22.3696 6 23H1V11.2414C3.09 11.2414 6.13965 10.9228 8.38896 14.1014C9.46595 13.4189 10.7262 13.0826 12 13.1379C13.2242 13.0888 14.4364 13.3958 15.4897 14.0217C15.8558 12.8424 16.336 11.7016 16.9234 10.6155C16.9234 7.80862 16.1686 6.65552 16.1686 6.65552C15.5664 6.90188 14.926 7.04177 14.2759 7.06897C13.3999 7.03319 12.5332 6.87618 11.7003 6.60241C11.5953 6.56947 11.4986 6.51408 11.4171 6.44008C11.3356 6.36608 11.2711 6.27524 11.2282 6.17386C11.1853 6.07247 11.1649 5.96296 11.1685 5.85292C11.172 5.74288 11.1995 5.63493 11.249 5.53655L11.6207 4.8L11.0972 3.48448C11.0316 3.31908 11.026 3.13589 11.0814 2.96679C11.1369 2.79769 11.2498 2.65337 11.4007 2.55897L13.3428 1.34517C13.705 1.1204 14.1227 1.00088 14.549 1H17.4848C17.9074 0.999509 18.3218 1.1167 18.6816 1.33846C19.0414 1.56021 19.3323 1.87775 19.5217 2.25552C20.709 4.61862 23 10.1983 23 18.069Z" fill="#FFDAC4"/>
<path d="M16.1695 6.65C16.4111 7.09116 16.6288 7.79784 16.7195 8.29259C17.3091 7.72868 17.9325 6.56312 17.9995 5.75C17.9995 5.75 17.0995 6.40224 16.7495 6.5C16.4358 6.59466 16.1695 6.65 16.1695 6.65ZM11.6193 4.8L11.3193 5.39655H13.5857C13.8874 5.39622 14.1767 5.27623 14.39 5.0629C14.6033 4.84956 14.7233 4.56032 14.7237 4.25862V3.87931C14.7237 3.77871 14.6837 3.68223 14.6126 3.6111C14.5414 3.53996 14.445 3.5 14.3444 3.5C14.2438 3.5 14.1473 3.53996 14.0761 3.6111C14.005 3.68223 13.965 3.77871 13.965 3.87931V4.25862C13.965 4.3592 13.925 4.45564 13.8539 4.52676C13.7828 4.59788 13.6863 4.63786 13.5857 4.63793H11.5581L11.6193 4.8Z" fill="#F9B995"/>
</svg>
