<svg width="56" height="56" viewBox="0 0 56 56" fill="none" xmlns="http://www.w3.org/2000/svg">
<path d="M21.5838 8.93391C22.6731 6.35537 26.3272 6.35536 27.4165 8.9339L32.059 19.9235C32.3798 20.6828 32.984 21.2871 33.7434 21.6078L44.7329 26.2503C47.3115 27.3396 47.3115 30.9937 44.7329 32.083L33.7434 36.7255C32.984 37.0463 32.3798 37.6505 32.059 38.4099L27.4165 49.3994C26.3272 51.978 22.6731 51.978 21.5838 49.3994L16.9413 38.4099C16.6206 37.6505 16.0163 37.0463 15.257 36.7255L4.2674 32.083C1.68886 30.9937 1.68886 27.3396 4.2674 26.2503L15.257 21.6078C16.0163 21.2871 16.6206 20.6828 16.9413 19.9235L21.5838 8.93391Z" fill="#7248D9"/>
<path d="M43.1054 3.14765C43.564 2.06195 45.1026 2.06195 45.5613 3.14765L47.516 7.77484C47.6511 8.09455 47.9055 8.34898 48.2252 8.48404L52.8524 10.4388C53.9381 10.8974 53.9381 12.436 52.8524 12.8946L48.2252 14.8494C47.9055 14.9844 47.6511 15.2389 47.516 15.5586L45.5613 20.1858C45.1026 21.2715 43.564 21.2715 43.1054 20.1858L41.1507 15.5586C41.0156 15.2389 40.7612 14.9844 40.4415 14.8494L35.8143 12.8946C34.7286 12.436 34.7286 10.8974 35.8143 10.4388L40.4415 8.48404C40.7612 8.34898 41.0156 8.09455 41.1507 7.77484L43.1054 3.14765Z" fill="#C8B7F4"/>
</svg>
