<svg width="24" height="24" viewBox="0 0 24 24" fill="none" xmlns="http://www.w3.org/2000/svg">
<path d="M23 3.58823V20.4117C23 21.0982 22.7274 21.7565 22.242 22.2419C21.7566 22.7273 21.0983 23 20.4118 23H3.58832C3.01486 22.9995 2.45777 22.8087 2.00453 22.4573C1.55129 22.106 1.22758 21.614 1.08421 21.0588C1.02645 20.848 0.998144 20.6303 1.00009 20.4117V3.58823C1.00009 2.90179 1.27278 2.24346 1.75817 1.75807C2.24356 1.27269 2.90188 1 3.58832 1H20.4118C21.0983 1 21.7566 1.27269 22.242 1.75807C22.7274 2.24346 23 2.90179 23 3.58823Z" fill="#DDDFE3"/>
<path d="M8.13403 20.5C7.65364 20.5011 7.18435 20.3499 6.78891 20.0666C6.39346 19.7833 6.09068 19.3814 5.92105 18.9146L4.58793 15.3492C4.5225 15.0895 4.49332 14.8214 4.50128 14.5531V13.9577C4.50128 13.6349 4.56249 13.3154 4.6814 13.0172C4.80032 12.719 4.97462 12.4481 5.19435 12.2198C5.41408 11.9916 5.67494 11.8106 5.96203 11.6871C6.24912 11.5636 6.55682 11.5 6.86757 11.5H8.13403C8.76161 11.5 9.36349 11.7589 9.80725 12.2198C10.251 12.6807 10.5003 13.3059 10.5003 13.9577V18.0423C10.5003 18.6941 10.251 19.3192 9.80725 19.7802C9.36349 20.2411 8.76161 20.5 8.13403 20.5ZM15.866 20.5C16.3464 20.5011 16.8156 20.3499 17.2111 20.0666C17.6065 19.7833 17.9093 19.3814 18.0789 18.9146L19.4121 15.3492C19.4775 15.0895 19.5067 14.8214 19.4987 14.5531V13.9577C19.4987 13.3059 19.2494 12.6807 18.8056 12.2198C18.3619 11.7589 17.76 11.5 17.1324 11.5H15.866C15.2384 11.5 14.6365 11.7589 14.1927 12.2198C13.749 12.6807 13.4997 13.3059 13.4997 13.9577V18.0423C13.4997 18.6941 13.749 19.3192 14.1927 19.7802C14.6365 20.2411 15.2384 20.5 15.866 20.5Z" fill="#C3C5CB"/>
<path d="M17.189 4.0084C17.9996 4.36366 18.3238 5.29652 18.0668 6.14342L17.6307 7.58074C17.3749 8.42367 16.5977 9 15.7168 9H8.28317C7.40228 9 6.62512 8.42367 6.36934 7.58074L5.93319 6.14342C5.67621 5.29652 6.0004 4.36366 6.811 4.0084C9.87888 2.66387 14.1211 2.66387 17.189 4.0084Z" fill="#F9FAFA"/>
<path d="M12.5 6.6V9H11.5V6.6C11.5 6.44087 11.5527 6.28826 11.6464 6.17574C11.7402 6.06321 11.8674 6 12 6C12.1326 6 12.2598 6.06321 12.3536 6.17574C12.4473 6.28826 12.5 6.44087 12.5 6.6Z" fill="#FF7070"/>
</svg>
