<svg width="24" height="24" viewBox="0 0 24 24" fill="none" xmlns="http://www.w3.org/2000/svg">
<path d="M12 1C18.0751 1 23 5.92487 23 12C23 18.0751 18.0751 23 12 23C5.92487 23 1 18.0751 1 12C1 5.92487 5.92487 1 12 1ZM12 6.25C11.4477 6.25 11 6.69772 11 7.25V11H7.25C6.69771 11 6.25 11.4477 6.25 12C6.25 12.5523 6.69771 13 7.25 13H11V16.75C11 17.3023 11.4477 17.75 12 17.75C12.5523 17.75 13 17.3023 13 16.75V13H16.75C17.3023 13 17.75 12.5523 17.75 12C17.75 11.4477 17.3023 11 16.75 11H13V7.25C13 6.69772 12.5523 6.25 12 6.25Z" fill="#25282D"/>
</svg>
