<svg width="24" height="24" viewBox="0 0 24 24" fill="none" xmlns="http://www.w3.org/2000/svg">
<path d="M12 6.25C12.5523 6.25 13 6.69772 13 7.25V11H16.75C17.3023 11 17.75 11.4477 17.75 12C17.75 12.5523 17.3023 13 16.75 13H13V16.75C13 17.3023 12.5523 17.75 12 17.75C11.4477 17.75 11 17.3023 11 16.75V13H7.25C6.69771 13 6.25 12.5523 6.25 12C6.25 11.4477 6.69771 11 7.25 11H11V7.25C11 6.69772 11.4477 6.25 12 6.25Z" fill="#25282D"/>
<path fill-rule="evenodd" clip-rule="evenodd" d="M12 23C18.0751 23 23 18.0751 23 12C23 5.92487 18.0751 1 12 1C5.92487 1 1 5.92487 1 12C1 18.0751 5.92487 23 12 23ZM12 21C16.9706 21 21 16.9706 21 12C21 7.02944 16.9706 3 12 3C7.02944 3 3 7.02944 3 12C3 16.9706 7.02944 21 12 21Z" fill="#25282D"/>
</svg>
