<svg width="24" height="24" viewBox="0 0 24 24" fill="none" xmlns="http://www.w3.org/2000/svg">
<path fill-rule="evenodd" clip-rule="evenodd" d="M8.12602 19C8.04375 18.6804 8 18.3453 8 18V17H16V18C16 18.3453 15.9562 18.6804 15.874 19C15.4299 20.7252 13.8638 22 12 22C10.1362 22 8.57006 20.7252 8.12602 19ZM13.7324 19C13.3866 19.5978 12.7403 20 12 20C11.2597 20 10.6134 19.5978 10.2676 19H13.7324Z" fill="#25282D"/>
<path fill-rule="evenodd" clip-rule="evenodd" d="M12 4C8.67235 4 6 6.47621 6 10.7368V12.9131C6 14.3741 5.46807 15.7852 4.50363 16.8827C4.50332 16.8833 4.50287 16.8843 4.50238 16.8856C4.50157 16.8878 4.50091 16.8902 4.50048 16.8925C4.50006 16.8948 4.5 16.8964 4.5 16.897C4.5 16.9232 4.50957 16.9507 4.53375 16.9753C4.54527 16.9869 4.55602 16.9933 4.56302 16.9963C4.56846 16.9987 4.57354 17 4.58218 17H19.4033C19.4567 17 19.5 16.9567 19.5 16.9033C19.5 16.8806 19.4918 16.8582 19.4768 16.8404C18.5239 15.7199 18 14.2963 18 12.8248V10.6781C18 6.48554 15.3364 4 12 4ZM4 10.7368C4 5.5 7.44365 2 12 2C16.5564 2 20 5.5 20 10.6781V12.8248C20 13.8213 20.3548 14.7857 21.0004 15.5448C21.3228 15.924 21.5 16.4056 21.5 16.9033C21.5 18.0613 20.5613 19 19.4033 19H4.58218C3.43222 19 2.5 18.0469 2.5 16.897C2.5 16.4091 2.67775 15.9303 3 15.5639C3.6445 14.8313 4 13.8889 4 12.9131V10.7368Z" fill="#25282D"/>
</svg>
