<svg width="24" height="24" viewBox="0 0 24 24" fill="none" xmlns="http://www.w3.org/2000/svg">
<path d="M21.0025 15.2077L19.1006 13.3977V8.9377C19.1259 7.28152 18.5172 5.67261 17.3869 4.40803C16.2565 3.14346 14.6809 2.30863 12.951 2.0577C11.947 1.93256 10.9263 2.01151 9.95711 2.28927C8.9879 2.56703 8.09242 3.03722 7.33043 3.66846C6.56845 4.2997 5.95746 5.07747 5.53826 5.94989C5.11905 6.82231 4.90125 7.76931 4.89941 8.7277V13.3977L2.99746 15.2077C2.75856 15.4376 2.59655 15.729 2.53169 16.0455C2.46684 16.362 2.502 16.6896 2.63279 16.9873C2.76358 17.2851 2.9842 17.5397 3.26706 17.7194C3.54992 17.8991 3.88248 17.9959 4.22316 17.9977H7.77346V18.3377C7.82281 19.3529 8.29538 20.3082 9.08762 20.9942C9.87986 21.6803 10.9271 22.0411 12 21.9977C13.0729 22.0411 14.1201 21.6803 14.9124 20.9942C15.7046 20.3082 16.1772 19.3529 16.2265 18.3377V17.9977H19.7768C20.1175 17.9959 20.4501 17.8991 20.7329 17.7194C21.0158 17.5397 21.2364 17.2851 21.3672 16.9873C21.498 16.6896 21.5332 16.362 21.4683 16.0455C21.4034 15.729 21.2414 15.4376 21.0025 15.2077ZM14.1133 18.3377C14.0547 18.8187 13.8022 19.2598 13.4086 19.569C13.0149 19.8782 12.5103 20.0318 12 19.9977C11.4897 20.0318 10.9851 19.8782 10.5914 19.569C10.1978 19.2598 9.94533 18.8187 9.88673 18.3377V17.9977H14.1133V18.3377Z" fill="#25282D"/>
</svg>
