<svg width="24" height="24" viewBox="0 0 24 24" fill="none" xmlns="http://www.w3.org/2000/svg">
<path fill-rule="evenodd" clip-rule="evenodd" d="M18 3H6C5.44772 3 5 3.44772 5 4V20.6965L10.5116 17.547C11.4339 17.02 12.5661 17.02 13.4884 17.547L19 20.6965V4C19 3.44772 18.5523 3 18 3ZM6 1H18C19.6569 1 21 2.34315 21 4V21.4197C21 22.2925 20.2925 23 19.4197 23C19.1447 23 18.8744 22.9282 18.6356 22.7918L12.4961 19.2835C12.1887 19.1078 11.8113 19.1078 11.5039 19.2835L5.36438 22.7918C5.1256 22.9282 4.85534 23 4.58032 23C3.70753 23 3 22.2925 3 21.4197V4C3 2.34315 4.34315 1 6 1Z" fill="#25282D"/>
</svg>
