<svg width="24" height="24" viewBox="0 0 24 24" fill="none" xmlns="http://www.w3.org/2000/svg">
<path d="M22 19C22 20.6569 20.6569 22 19 22H5C3.34315 22 2 20.6569 2 19V12H22V19ZM5.5 14C4.94772 14 4.5 14.4477 4.5 15V17C4.5 17.5523 4.94772 18 5.5 18H7.5C8.05228 18 8.5 17.5523 8.5 17V15C8.5 14.4477 8.05228 14 7.5 14H5.5ZM16 2C16.5523 2 17 2.44772 17 3V4H19C20.6569 4 22 5.34315 22 7V10H2V7C2 5.34315 3.34315 4 5 4H7V3C7 2.44772 7.44772 2 8 2C8.55228 2 9 2.44772 9 3V4H15V3C15 2.44772 15.4477 2 16 2Z" fill="#000000"/>
</svg> 