<svg width="24" height="24" viewBox="0 0 24 24" fill="none" xmlns="http://www.w3.org/2000/svg">
<path d="M4.61803 2H7.76985C8.52431 2 9.21456 2.42456 9.55485 3.09791L11.091 6.13762C11.5313 7.00875 11.2784 8.07041 10.4928 8.64957L9.24955 9.56604C9.1039 9.67341 9.05286 9.86792 9.12688 10.033C10.0913 12.1845 11.8139 13.9079 13.9654 14.8724C14.1313 14.9468 14.3265 14.8948 14.4335 14.7477L15.2711 13.596C15.8383 12.816 16.8814 12.552 17.7515 12.9681L20.8629 14.4562C21.5577 14.7885 22 15.4902 22 16.2604V19.382C22 19.7884 21.9054 20.1893 21.7236 20.5528C21.2801 21.4397 20.3736 22 19.382 22H19C10 22 2 14 2 5V4.61803C2 3.6264 2.56027 2.71987 3.44721 2.27639C3.81074 2.09463 4.2116 2 4.61803 2Z" fill="#25282D"/>
</svg>
