<svg width="24" height="24" viewBox="0 0 24 24" fill="none" xmlns="http://www.w3.org/2000/svg">
<path fill-rule="evenodd" clip-rule="evenodd" d="M7.76985 4H4.61803C4.52209 4 4.42746 4.02234 4.34164 4.06525C4.13226 4.16994 4 4.38394 4 4.61803V5C4 12.8954 11.1046 20 19 20H19.382C19.6161 20 19.8301 19.8677 19.9348 19.6584C19.9777 19.5725 20 19.4779 20 19.382V16.2604L16.8885 14.7724L16.0509 15.9241C15.3877 16.8361 14.1763 17.1587 13.1473 16.6974C10.5476 15.5321 8.46691 13.4501 7.30186 10.8511C6.84329 9.82818 7.15895 8.62248 8.06281 7.95618L9.30604 7.03971L7.76985 4ZM7.76985 2H4.61803C4.2116 2 3.81074 2.09463 3.44721 2.27639C2.56027 2.71987 2 3.6264 2 4.61803V5C2 14 10 22 19 22H19.382C20.3736 22 21.2801 21.4397 21.7236 20.5528C21.9054 20.1893 22 19.7884 22 19.382V16.2604C22 15.4902 21.5577 14.7885 20.8629 14.4562L17.7515 12.9681C16.8814 12.552 15.8383 12.816 15.2711 13.596L14.4335 14.7477C14.3265 14.8948 14.1313 14.9468 13.9654 14.8724C11.8139 13.9079 10.0913 12.1845 9.12688 10.033C9.05286 9.86792 9.1039 9.67341 9.24955 9.56604L10.4928 8.64957C11.2784 8.07041 11.5313 7.00875 11.091 6.13762L9.55485 3.09791C9.21456 2.42456 8.52431 2 7.76985 2Z" fill="#25282D"/>
</svg>
