<svg width="24" height="24" viewBox="0 0 24 24" fill="none" xmlns="http://www.w3.org/2000/svg">
<path fill-rule="evenodd" clip-rule="evenodd" d="M6 6L6.67082 4.65836C7.179 3.64201 8.21779 3 9.3541 3H14.6459C15.7822 3 16.821 3.64201 17.3292 4.65836L18 6H20C21.6569 6 23 7.34315 23 9V18C23 19.6569 21.6569 21 20 21H4C2.34315 21 1 19.6569 1 18V9C1 7.34315 2.34315 6 4 6H6ZM12 17.5C14.2091 17.5 16 15.7091 16 13.5C16 11.2909 14.2091 9.5 12 9.5C9.79086 9.5 8 11.2909 8 13.5C8 15.7091 9.79086 17.5 12 17.5Z" fill="#25282D"/>
</svg>
