<svg width="24" height="24" viewBox="0 0 24 24" fill="none" xmlns="http://www.w3.org/2000/svg">
<path fill-rule="evenodd" clip-rule="evenodd" d="M12 15.5C13.3807 15.5 14.5 14.3807 14.5 13C14.5 11.6193 13.3807 10.5 12 10.5C10.6193 10.5 9.5 11.6193 9.5 13C9.5 14.3807 10.6193 15.5 12 15.5ZM12 17.5C14.4853 17.5 16.5 15.4853 16.5 13C16.5 10.5147 14.4853 8.5 12 8.5C9.51472 8.5 7.5 10.5147 7.5 13C7.5 15.4853 9.51472 17.5 12 17.5Z" fill="#25282D"/>
<path fill-rule="evenodd" clip-rule="evenodd" d="M7.78885 6.89443C7.45007 7.572 6.75754 8 6 8H4C3.44772 8 3 8.44772 3 9V18C3 18.5523 3.44772 19 4 19H20C20.5523 19 21 18.5523 21 18V9C21 8.44772 20.5523 8 20 8H18C17.2425 8 16.5499 7.572 16.2111 6.89443L15.5403 5.55279C15.3709 5.214 15.0247 5 14.6459 5H9.3541C8.97533 5 8.62907 5.214 8.45967 5.55279L7.78885 6.89443ZM18 6L17.3292 4.65836C16.821 3.64201 15.7822 3 14.6459 3H9.3541C8.21779 3 7.179 3.64201 6.67082 4.65836L6 6H4C2.34315 6 1 7.34315 1 9V18C1 19.6569 2.34315 21 4 21H20C21.6569 21 23 19.6569 23 18V9C23 7.34315 21.6569 6 20 6H18Z" fill="#25282D"/>
</svg>
