<svg width="24" height="24" viewBox="0 0 24 24" fill="none" xmlns="http://www.w3.org/2000/svg">
<path d="M12 1C18.0751 1 23 5.92487 23 12C23 18.0751 18.0751 23 12 23C5.92487 23 1 18.0751 1 12C1 5.92487 5.92487 1 12 1ZM16.0664 7.93359C15.6759 7.54317 15.0428 7.54318 14.6523 7.93359L12 10.585L9.34863 7.93359C8.95812 7.54328 8.32504 7.54321 7.93457 7.93359C7.54411 8.32406 7.54423 8.95712 7.93457 9.34766L10.5859 11.999L7.93457 14.6514C7.54425 15.0419 7.54418 15.675 7.93457 16.0654C8.32505 16.4557 8.95815 16.4557 9.34863 16.0654L12 13.4131L14.6523 16.0654C15.0429 16.4557 15.676 16.4559 16.0664 16.0654C16.4568 15.675 16.4567 15.0419 16.0664 14.6514L13.4141 11.999L16.0664 9.34766C16.4568 8.95718 16.4567 8.3241 16.0664 7.93359Z" fill="#25282D"/>
</svg>
