<svg width="24" height="24" viewBox="0 0 24 24" fill="none" xmlns="http://www.w3.org/2000/svg">
<path d="M16.0659 7.93388C16.4564 8.3244 16.4564 8.95757 16.0659 9.34809L13.4142 11.9997L16.0659 14.6514C16.4564 15.0419 16.4564 15.6751 16.0659 16.0656C15.6753 16.4561 15.0422 16.4561 14.6517 16.0656L12 13.414L9.34835 16.0656C8.95782 16.4561 8.32466 16.4561 7.93414 16.0656C7.54361 15.6751 7.54361 15.0419 7.93414 14.6514L10.5858 11.9997L7.93414 9.34809C7.54361 8.95757 7.54361 8.3244 7.93414 7.93388C8.32466 7.54335 8.95783 7.54335 9.34835 7.93388L12 10.5855L14.6517 7.93388C15.0422 7.54335 15.6753 7.54335 16.0659 7.93388Z" fill="#25282D"/>
<path fill-rule="evenodd" clip-rule="evenodd" d="M12 23C18.0751 23 23 18.0751 23 12C23 5.92487 18.0751 1 12 1C5.92487 1 1 5.92487 1 12C1 18.0751 5.92487 23 12 23ZM12 21C16.9706 21 21 16.9706 21 12C21 7.02944 16.9706 3 12 3C7.02944 3 3 7.02944 3 12C3 16.9706 7.02944 21 12 21Z" fill="#25282D"/>
</svg>
