<svg width="24" height="24" viewBox="0 0 24 24" fill="none" xmlns="http://www.w3.org/2000/svg">
<path d="M10.75 16.5C10.75 15.8096 11.3096 15.25 12 15.25C12.6904 15.25 13.25 15.8096 13.25 16.5C13.25 17.1904 12.6904 17.75 12 17.75C11.3096 17.75 10.75 17.1904 10.75 16.5Z" fill="#25282D"/>
<path d="M12 6.25C11.4477 6.25 11 6.69772 11 7.25V13.25C11 13.8023 11.4477 14.25 12 14.25C12.5523 14.25 13 13.8023 13 13.25V7.25C13 6.69772 12.5523 6.25 12 6.25Z" fill="#25282D"/>
<path fill-rule="evenodd" clip-rule="evenodd" d="M12 23C18.0751 23 23 18.0751 23 12C23 5.92487 18.0751 1 12 1C5.92487 1 1 5.92487 1 12C1 18.0751 5.92487 23 12 23ZM12 21C16.9706 21 21 16.9706 21 12C21 7.02944 16.9706 3 12 3C7.02944 3 3 7.02944 3 12C3 16.9706 7.02944 21 12 21Z" fill="#25282D"/>
</svg>
