<svg width="24" height="24" viewBox="0 0 24 24" fill="none" xmlns="http://www.w3.org/2000/svg">
<path d="M12 1C18.0751 1 23 5.92487 23 12C23 18.0751 18.0751 23 12 23C5.92487 23 1 18.0751 1 12C1 5.92487 5.92487 1 12 1ZM12 15.25C11.3096 15.25 10.75 15.8096 10.75 16.5C10.75 17.1904 11.3096 17.75 12 17.75C12.6904 17.75 13.25 17.1904 13.25 16.5C13.25 15.8096 12.6904 15.25 12 15.25ZM12 6.25C11.4477 6.25 11 6.69772 11 7.25V13.25C11 13.8023 11.4477 14.25 12 14.25C12.5523 14.25 13 13.8023 13 13.25V7.25C13 6.69772 12.5523 6.25 12 6.25Z" fill="#25282D"/>
</svg>
