<svg width="24" height="24" viewBox="0 0 24 24" fill="none" xmlns="http://www.w3.org/2000/svg">
<path fill-rule="evenodd" clip-rule="evenodd" d="M19.6585 5.99744C20.0742 6.36112 20.1163 6.99288 19.7526 7.40852L10.5651 17.9085C10.3763 18.1242 10.1041 18.2486 9.81747 18.25C9.53084 18.2514 9.25738 18.1298 9.0665 17.916L4.254 12.5248C3.88622 12.1128 3.92206 11.4807 4.33407 11.1129C4.74608 10.7451 5.37823 10.781 5.74602 11.193L9.80502 15.74L18.2474 6.09151C18.6111 5.67587 19.2429 5.63375 19.6585 5.99744Z" fill="#25282D"/>
<path fill-rule="evenodd" clip-rule="evenodd" d="M21 2H3C2.44772 2 2 2.44772 2 3V21C2 21.5523 2.44772 22 3 22H21C21.5523 22 22 21.5523 22 21V3C22 2.44772 21.5523 2 21 2ZM3 0C1.34315 0 0 1.34315 0 3V21C0 22.6569 1.34315 24 3 24H21C22.6569 24 24 22.6569 24 21V3C24 1.34315 22.6569 0 21 0H3Z" fill="#25282D"/>
</svg>
