<svg width="24" height="24" viewBox="0 0 24 24" fill="none" xmlns="http://www.w3.org/2000/svg">
<path d="M12 1C18.0751 1 23 5.92487 23 12C23 18.0751 18.0751 23 12 23C5.92487 23 1 18.0751 1 12C1 5.92487 5.92487 1 12 1ZM17.1582 7.99707C16.7426 7.63373 16.1106 7.67628 15.7471 8.0918L10.5859 13.9902L8.24609 11.3682C7.87831 10.9562 7.24597 10.9204 6.83398 11.2881C6.422 11.6559 6.38619 12.2882 6.75391 12.7002L9.84766 16.166C10.0385 16.3798 10.312 16.5014 10.5986 16.5C10.8853 16.4986 11.1579 16.3739 11.3467 16.1582L17.2529 9.4082C17.6163 8.99256 17.5737 8.36065 17.1582 7.99707Z" fill="#25282D"/>
</svg>
