<svg width="24" height="24" viewBox="0 0 24 24" fill="none" xmlns="http://www.w3.org/2000/svg">
<path d="M17.2526 9.6585C17.6163 9.24287 17.5741 8.61111 17.1585 8.24742C16.7429 7.88374 16.1111 7.92586 15.7474 8.3415L10.5863 14.24L8.24601 11.6183C7.87822 11.2063 7.24607 11.1705 6.83406 11.5383C6.42205 11.9061 6.38621 12.5382 6.75399 12.9502L9.84774 16.4159C10.0386 16.6298 10.3121 16.7514 10.5987 16.75C10.8853 16.7486 11.1576 16.6242 11.3463 16.4085L17.2526 9.6585Z" fill="#25282D"/>
<path fill-rule="evenodd" clip-rule="evenodd" d="M23 12C23 18.0751 18.0751 23 12 23C5.92487 23 1 18.0751 1 12C1 5.92487 5.92487 1 12 1C18.0751 1 23 5.92487 23 12ZM21 12C21 16.9706 16.9706 21 12 21C7.02944 21 3 16.9706 3 12C3 7.02944 7.02944 3 12 3C16.9706 3 21 7.02944 21 12Z" fill="#25282D"/>
</svg>
