<svg width="24" height="24" viewBox="0 0 24 24" fill="none" xmlns="http://www.w3.org/2000/svg">
<path d="M21 0C22.6569 0 24 1.34315 24 3V21C24 22.6569 22.6569 24 21 24H3C1.34315 24 0 22.6569 0 21V3C0 1.34315 1.34315 0 3 0H21ZM19.6582 5.99707C19.2426 5.63373 18.6106 5.67628 18.2471 6.0918L9.80469 15.7402L5.74609 11.1934C5.37831 10.7814 4.74599 10.7455 4.33398 11.1133C3.9223 11.481 3.88646 12.1125 4.25391 12.5244L9.06641 17.916C9.25727 18.1298 9.53079 18.2514 9.81738 18.25C10.104 18.2486 10.3767 18.1239 10.5654 17.9082L19.7529 7.4082C20.1163 6.99256 20.0737 6.36065 19.6582 5.99707Z" fill="#25282D"/>
</svg>
