<svg width="24" height="24" viewBox="0 0 24 24" fill="none" xmlns="http://www.w3.org/2000/svg">
<path fill-rule="evenodd" clip-rule="evenodd" d="M11 3C8.23858 3 6 5.23858 6 8V11.5H4V8C4 4.13401 7.13401 1 11 1H13C16.8659 1 20 4.13373 20 7.99977V18.0004C20 20.2097 18.209 22 16 22H12.5V20H16C17.1047 20 18 19.1048 18 18.0004V7.99977C18 5.2384 15.7615 3 13 3H11Z" fill="#25282D"/>
<path d="M16.5 10C16.5 8.89543 17.3954 8 18.5 8H19.5C20.6046 8 21.5 8.89543 21.5 10V15C21.5 16.1046 20.6046 17 19.5 17H18.5C17.3954 17 16.5 16.1046 16.5 15V10Z" fill="#25282D"/>
<path d="M2.5 10C2.5 8.89543 3.39543 8 4.5 8H5.5C6.60457 8 7.5 8.89543 7.5 10V15C7.5 16.1046 6.60457 17 5.5 17H4.5C3.39543 17 2.5 16.1046 2.5 15V10Z" fill="#25282D"/>
<path d="M21.5 10C22.3284 10 23 10.6716 23 11.5V13.5C23 14.3284 22.3284 15 21.5 15V10Z" fill="#25282D"/>
<path d="M2.5 10C1.67157 10 1 10.6716 1 11.5V13.5C1 14.3284 1.67157 15 2.5 15V10Z" fill="#25282D"/>
<path d="M9 21C9 19.8954 9.89543 19 11 19H13C14.1046 19 15 19.8954 15 21C15 22.1046 14.1046 23 13 23H11C9.89543 23 9 22.1046 9 21Z" fill="#25282D"/>
</svg>
