<svg width="24" height="24" viewBox="0 0 24 24" fill="none" xmlns="http://www.w3.org/2000/svg">
<path fill-rule="evenodd" clip-rule="evenodd" d="M9 2C10.1046 2 11 2.89543 11 4V9C11 10.1046 10.1046 11 9 11H4C2.89543 11 2 10.1046 2 9V4C2 2.89543 2.89543 2 4 2H9ZM4.5 4C4.22386 4 4 4.22386 4 4.5V8.5C4 8.77614 4.22386 9 4.5 9H8.5C8.77614 9 9 8.77614 9 8.5V4.5C9 4.22386 8.77614 4 8.5 4H4.5Z" fill="#25282D"/>
<path fill-rule="evenodd" clip-rule="evenodd" d="M20 2C21.1046 2 22 2.89543 22 4V9C22 10.1046 21.1046 11 20 11H15C13.8954 11 13 10.1046 13 9V4C13 2.89543 13.8954 2 15 2H20ZM15.5 4C15.2239 4 15 4.22386 15 4.5V8.5C15 8.77614 15.2239 9 15.5 9H19.5C19.7761 9 20 8.77614 20 8.5V4.5C20 4.22386 19.7761 4 19.5 4H15.5Z" fill="#25282D"/>
<path fill-rule="evenodd" clip-rule="evenodd" d="M9 13C10.1046 13 11 13.8954 11 15V20C11 21.1046 10.1046 22 9 22H4C2.89543 22 2 21.1046 2 20V15C2 13.8954 2.89543 13 4 13H9ZM4.5 15C4.22386 15 4 15.2239 4 15.5V19.5C4 19.7761 4.22386 20 4.5 20H8.5C8.77614 20 9 19.7761 9 19.5V15.5C9 15.2239 8.77614 15 8.5 15H4.5Z" fill="#25282D"/>
<path fill-rule="evenodd" clip-rule="evenodd" d="M20 13C21.1046 13 22 13.8954 22 15V20C22 21.1046 21.1046 22 20 22H15C13.8954 22 13 21.1046 13 20V15C13 13.8954 13.8954 13 15 13H20ZM15.5 15C15.2239 15 15 15.2239 15 15.5V19.5C15 19.7761 15.2239 20 15.5 20H19.5C19.7761 20 20 19.7761 20 19.5V15.5C20 15.2239 19.7761 15 19.5 15H15.5Z" fill="#25282D"/>
</svg>
