<svg width="24" height="24" viewBox="0 0 24 24" fill="none" xmlns="http://www.w3.org/2000/svg">
<rect x="8.69995" y="9.80005" width="2.2" height="7.7" rx="1.1" fill="#25282D"/>
<rect x="13.1003" y="9.7998" width="2.2" height="7.7" rx="1.1" fill="#25282D"/>
<path fill-rule="evenodd" clip-rule="evenodd" d="M7.60034 4.3C7.60034 2.47746 9.0778 1 10.9003 1H13.1003C14.9229 1 16.4003 2.47746 16.4003 4.3H20.8003C21.4079 4.3 21.9003 4.79249 21.9003 5.4C21.9003 6.00751 21.4079 6.5 20.8003 6.5H19.7003V19.7C19.7003 21.5225 18.2229 23 16.4003 23H7.60034C5.7778 23 4.30034 21.5225 4.30034 19.7V6.5H3.20034C2.59283 6.5 2.10034 6.00751 2.10034 5.4C2.10034 4.79249 2.59283 4.3 3.20034 4.3H7.60034ZM10.9003 3.2H13.1003C13.7079 3.2 14.2003 3.69249 14.2003 4.3H9.80034C9.80034 3.69249 10.2928 3.2 10.9003 3.2ZM6.50034 6.5V19.7C6.50034 20.3075 6.99283 20.8 7.60034 20.8H16.4003C17.0079 20.8 17.5003 20.3075 17.5003 19.7V6.5H6.50034Z" fill="#25282D"/>
</svg>
