<svg width="24" height="24" viewBox="0 0 24 24" fill="none" xmlns="http://www.w3.org/2000/svg">
<path d="M13.1003 1C14.9228 1 16.4 2.47736 16.4001 4.2998H20.8005C21.408 4.29991 21.9001 4.79294 21.9001 5.40039C21.8999 6.00766 21.4078 6.49989 20.8005 6.5H19.7V19.7002C19.6998 21.5226 18.2226 23 16.4001 23H7.60034C5.77787 23 4.30064 21.5226 4.30054 19.7002V6.5H3.19995C2.59275 6.49979 2.10055 6.00759 2.10034 5.40039C2.10034 4.79301 2.59262 4.30002 3.19995 4.2998H7.60034C7.60045 2.47742 9.07776 1.00011 10.9001 1H13.1003ZM9.79956 9.7998C9.19223 9.80002 8.69995 10.293 8.69995 10.9004V16.4004C8.70016 17.0076 9.19236 17.4998 9.79956 17.5C10.4069 17.5 10.8999 17.0077 10.9001 16.4004V10.9004C10.9001 10.2929 10.4071 9.7998 9.79956 9.7998ZM14.2 9.7998C13.5924 9.7998 13.1003 10.2929 13.1003 10.9004V16.4004C13.1006 17.0077 13.5926 17.5 14.2 17.5C14.8073 17.5 15.2993 17.0077 15.2996 16.4004V10.9004C15.2996 10.2929 14.8075 9.7998 14.2 9.7998ZM10.9001 3.2002C10.2928 3.2003 9.80064 3.69245 9.80054 4.2998H14.2C14.1998 3.69238 13.7078 3.2002 13.1003 3.2002H10.9001Z" fill="#25282D"/>
</svg>
