<svg width="24" height="24" viewBox="0 0 24 24" fill="none" xmlns="http://www.w3.org/2000/svg">
<path fill-rule="evenodd" clip-rule="evenodd" d="M5.39445 17H19C20.1046 17 21 16.1046 21 15V7C21 5.89543 20.1046 5 19 5H5C3.89543 5 3 5.89543 3 7V18.5963L5.39445 17ZM6 19L3.38675 20.7422C3.13457 20.9103 2.83827 21 2.53518 21C1.68733 21 1 20.3127 1 19.4648V7C1 4.79086 2.79086 3 5 3H19C21.2091 3 23 4.79086 23 7V15C23 17.2091 21.2091 19 19 19H6Z" fill="#25282D"/>
<path d="M13.25 11.25C13.25 11.9404 12.6904 12.5 12 12.5C11.3096 12.5 10.75 11.9404 10.75 11.25C10.75 10.5596 11.3096 10 12 10C12.6904 10 13.25 10.5596 13.25 11.25Z" fill="#25282D"/>
<path d="M17.7002 11.25C17.7002 11.9404 17.1406 12.5 16.4502 12.5C15.7598 12.5 15.2002 11.9404 15.2002 11.25C15.2002 10.5596 15.7598 10 16.4502 10C17.1406 10 17.7002 10.5596 17.7002 11.25Z" fill="#25282D"/>
<path d="M8.7998 11.25C8.7998 11.9404 8.24016 12.5 7.5498 12.5C6.85945 12.5 6.2998 11.9404 6.2998 11.25C6.2998 10.5596 6.85945 10 7.5498 10C8.24016 10 8.7998 10.5596 8.7998 11.25Z" fill="#25282D"/>
</svg>
