<svg width="24" height="24" viewBox="0 0 24 24" fill="none" xmlns="http://www.w3.org/2000/svg">
<path fill-rule="evenodd" clip-rule="evenodd" d="M3 21C3 20.4477 3.44772 20 4 20L20 20C20.5523 20 21 20.4477 21 21C21 21.5523 20.5523 22 20 22L4 22C3.44772 22 3 21.5523 3 21Z" fill="#25282D"/>
<path fill-rule="evenodd" clip-rule="evenodd" d="M18.0401 11.9599C18.4306 12.3504 18.4306 12.9836 18.0401 13.3741L17.333 12.667L16.6259 11.9599C17.0164 11.5694 17.6496 11.5694 18.0401 11.9599ZM11.9996 16.5862L16.6259 11.9599C16.6259 11.9599 16.6259 11.9599 17.333 12.667C18.0401 13.3741 18.0401 13.3741 18.0401 13.3741L12.7067 18.7075C12.3162 19.098 11.683 19.098 11.2925 18.7075L5.95915 13.3741C5.56862 12.9836 5.56862 12.3504 5.95915 11.9599C6.34967 11.5694 6.98284 11.5694 7.37336 11.9599L11.9996 16.5862Z" fill="#25282D"/>
<path fill-rule="evenodd" clip-rule="evenodd" d="M12 18.5C11.4477 18.5 11 18.0523 11 17.5L11 3C11 2.44771 11.4477 2 12 2C12.5523 2 13 2.44772 13 3L13 17.5C13 18.0523 12.5523 18.5 12 18.5Z" fill="#25282D"/>
</svg>
