<svg width="24" height="24" viewBox="0 0 24 24" fill="none" xmlns="http://www.w3.org/2000/svg">
<path fill-rule="evenodd" clip-rule="evenodd" d="M5 8V20C5 20.5523 5.44772 21 6 21H14C14.5523 21 15 20.5523 15 20H9C7.34315 20 6 18.6569 6 17V7C5.44772 7 5 7.44772 5 8ZM14 23H6C4.34315 23 3 21.6569 3 20V8C3 6.34315 4.34315 5 6 5H8V17C8 17.5523 8.44772 18 9 18H17V20C17 21.6569 15.6569 23 14 23Z" fill="#25282D"/>
<path fill-rule="evenodd" clip-rule="evenodd" d="M18 3H9C8.44772 3 8 3.44772 8 4V17C8 17.5523 8.44772 18 9 18H18C18.5523 18 19 17.5523 19 17V4C19 3.44772 18.5523 3 18 3ZM9 1C7.34315 1 6 2.34315 6 4V17C6 18.6569 7.34315 20 9 20H18C19.6569 20 21 18.6569 21 17V4C21 2.34315 19.6569 1 18 1H9Z" fill="#25282D"/>
</svg>
