<svg width="24" height="24" viewBox="0 0 24 24" fill="none" xmlns="http://www.w3.org/2000/svg">
<path d="M12 1C12.5523 1 13 1.44772 13 2V3H17.9297C18.5984 3.00002 19.2228 3.33424 19.5938 3.89062L20.7227 5.58398C20.9035 5.85525 21 6.17398 21 6.5C21 6.82602 20.9035 7.14475 20.7227 7.41602L19.5938 9.10938C19.2228 9.66576 18.5984 9.99998 17.9297 10H13V11H19C20.1046 11 21 11.8954 21 13V16C21 17.1046 20.1046 18 19 18H13V22C13 22.5523 12.5523 23 12 23C11.4477 23 11 22.5523 11 22V18H6.07031C5.40163 18 4.77717 17.6658 4.40625 17.1094L3.27734 15.416C3.0965 15.1447 3 14.826 3 14.5C3 14.174 3.0965 13.8553 3.27734 13.584L4.40625 11.8906C4.77717 11.3342 5.40163 11 6.07031 11H11V10H5C3.89543 10 3 9.10457 3 8V5C3 3.89543 3.89543 3 5 3H11V2C11 1.44772 11.4477 1 12 1ZM5.07031 14.5L6.07031 16H19V13H6.07031L5.07031 14.5ZM5 8H17.9297L18.9297 6.5L17.9297 5H5V8Z" fill="#25282D"/>
</svg>
