<svg width="24" height="24" viewBox="0 0 24 24" fill="none" xmlns="http://www.w3.org/2000/svg">
<path fill-rule="evenodd" clip-rule="evenodd" d="M4 1C4.55228 1 5 1.44772 5 2V3H20C20.5523 3 21 3.44772 21 4C21 4.55228 20.5523 5 20 5H19V6C20.1046 6 21 6.89543 21 8V15C21 16.1046 20.1046 17 19 17H9C7.89543 17 7 16.1046 7 15V8C7 6.89543 7.89543 6 9 6V5H5V22C5 22.5523 4.55228 23 4 23C3.44772 23 3 22.5523 3 22V2C3 1.44772 3.44772 1 4 1ZM11 9C10.7239 9 10.5 9.22386 10.5 9.5V10H10C9.72386 10 9.5 10.2239 9.5 10.5V12.5C9.5 12.7761 9.72386 13 10 13H10.5V13.5C10.5 13.7761 10.7239 14 11 14H12C12.2761 14 12.5 13.7761 12.5 13.5V12.5H15.5V13.5C15.5 13.7761 15.7239 14 16 14H17C17.2761 14 17.5 13.7761 17.5 13.5V13H18C18.2761 13 18.5 12.7761 18.5 12.5V10.5C18.5 10.2239 18.2761 10 18 10H17.5V9.5C17.5 9.22386 17.2761 9 17 9H16C15.7239 9 15.5 9.22386 15.5 9.5V10.5H12.5V9.5C12.5 9.22386 12.2761 9 12 9H11ZM11 6H17V5H11V6Z" fill="#25282D"/>
</svg>
