<svg width="24" height="24" viewBox="0 0 24 24" fill="none" xmlns="http://www.w3.org/2000/svg">
<path d="M8 6C7.44772 6 7 6.44772 7 7C7 7.55228 7.44772 8 8 8L16 8C16.5523 8 17 7.55228 17 7C17 6.44771 16.5523 6 16 6L8 6Z" fill="#25282D"/>
<path d="M7 11C7 10.4477 7.44772 10 8 10L16 10C16.5523 10 17 10.4477 17 11C17 11.5523 16.5523 12 16 12L8 12C7.44772 12 7 11.5523 7 11Z" fill="#25282D"/>
<path d="M8 14C7.44772 14 7 14.4477 7 15C7 15.5523 7.44772 16 8 16H13C13.5523 16 14 15.5523 14 15C14 14.4477 13.5523 14 13 14H8Z" fill="#25282D"/>
<path fill-rule="evenodd" clip-rule="evenodd" d="M3 4C3 2.34315 4.34315 1 6 1H18C19.6569 1 21 2.34315 21 4V20C21 21.6569 19.6569 23 18 23H6C4.34315 23 3 21.6569 3 20V4ZM6 3H18C18.5523 3 19 3.44772 19 4V20C19 20.5523 18.5523 21 18 21H6C5.44772 21 5 20.5523 5 20V4C5 3.44772 5.44772 3 6 3Z" fill="#25282D"/>
</svg>
