<svg width="24" height="24" viewBox="0 0 24 24" fill="none" xmlns="http://www.w3.org/2000/svg">
<path fill-rule="evenodd" clip-rule="evenodd" d="M12 4.28132L4 11.8603V20H7.5V17.5C7.5 15.2909 9.29086 13.5 11.5 13.5H12.5C14.7091 13.5 16.5 15.2909 16.5 17.5V20H20L20 11.8603L12 4.28132ZM2.62451 10.4084L11.137 2.34387C11.3701 2.12307 11.6789 2 12 2C12.3211 2 12.6299 2.12307 12.863 2.34387L21.3755 10.4084C21.7742 10.7861 22 11.3111 22 11.8603V20C22 21.1046 21.1046 22 20 22H15.5C14.9477 22 14.5 21.5523 14.5 21V17.5C14.5 16.3954 13.6046 15.5 12.5 15.5H11.5C10.3954 15.5 9.5 16.3954 9.5 17.5V21C9.5 21.5523 9.05228 22 8.5 22H4C2.89543 22 2 21.1046 2 20V11.8603C2 11.3111 2.22583 10.7861 2.62451 10.4084Z" fill="currentColor"/>
</svg>
