<svg width="24" height="24" viewBox="0 0 24 24" fill="none" xmlns="http://www.w3.org/2000/svg">
<path fill-rule="evenodd" clip-rule="evenodd" d="M20 5.5H4C3.44772 5.5 3 5.94772 3 6.5V17.5C3 18.0523 3.44772 18.5 4 18.5H20C20.5523 18.5 21 18.0523 21 17.5V6.5C21 5.94772 20.5523 5.5 20 5.5ZM4 3.5C2.34315 3.5 1 4.84315 1 6.5V17.5C1 19.1569 2.34315 20.5 4 20.5H20C21.6569 20.5 23 19.1569 23 17.5V6.5C23 4.84315 21.6569 3.5 20 3.5H4Z" fill="#25282D"/>
<path fill-rule="evenodd" clip-rule="evenodd" d="M13.5 14C13.5 13.4477 13.9477 13 14.5 13L18.5 13C19.0523 13 19.5 13.4477 19.5 14C19.5 14.5523 19.0523 15 18.5 15L14.5 15C13.9477 15 13.5 14.5523 13.5 14Z" fill="#25282D"/>
<path fill-rule="evenodd" clip-rule="evenodd" d="M13.5 10C13.5 9.44772 13.9477 9 14.5 9L16.5 9C17.0523 9 17.5 9.44772 17.5 10C17.5 10.5523 17.0523 11 16.5 11L14.5 11C13.9477 11 13.5 10.5523 13.5 10Z" fill="#25282D"/>
<path fill-rule="evenodd" clip-rule="evenodd" d="M4.5 10C4.5 8.89543 5.39543 8 6.5 8H9.5C10.6046 8 11.5 8.89543 11.5 10V14C11.5 15.1046 10.6046 16 9.5 16H6.5C5.39543 16 4.5 15.1046 4.5 14V10ZM9.5 10H6.5V14H9.5L9.5 10Z" fill="#25282D"/>
</svg>
