<svg width="24" height="24" viewBox="0 0 24 24" fill="none" xmlns="http://www.w3.org/2000/svg">
<path d="M1 6.5C1 4.84315 2.34315 3.5 4 3.5H20C21.6569 3.5 23 4.84315 23 6.5V17.5C23 19.1569 21.6569 20.5 20 20.5H4C2.34315 20.5 1 19.1569 1 17.5V6.5Z" fill="#25282D"/>
<path fill-rule="evenodd" clip-rule="evenodd" d="M13.5 14C13.5 13.4477 13.9477 13 14.5 13L18.5 13C19.0523 13 19.5 13.4477 19.5 14C19.5 14.5523 19.0523 15 18.5 15L14.5 15C13.9477 15 13.5 14.5523 13.5 14Z" fill="white"/>
<path fill-rule="evenodd" clip-rule="evenodd" d="M13.5 10C13.5 9.44772 13.9477 9 14.5 9L16.5 9C17.0523 9 17.5 9.44772 17.5 10C17.5 10.5523 17.0523 11 16.5 11L14.5 11C13.9477 11 13.5 10.5523 13.5 10Z" fill="white"/>
<path d="M9.5 8H6.5C5.39543 8 4.5 8.89543 4.5 10V14C4.5 15.1046 5.39543 16 6.5 16H9.5C10.6046 16 11.5 15.1046 11.5 14V10C11.5 8.89543 10.6046 8 9.5 8Z" fill="white"/>
</svg>
