<svg width="24" height="24" viewBox="0 0 24 24" fill="none" xmlns="http://www.w3.org/2000/svg">
<path fill-rule="evenodd" clip-rule="evenodd" d="M19 4H5C4.44771 4 4 4.44772 4 5V19C4 19.5523 4.44772 20 5 20H19C19.5523 20 20 19.5523 20 19V5C20 4.44771 19.5523 4 19 4ZM5 2C3.34315 2 2 3.34315 2 5V19C2 20.6569 3.34315 22 5 22H19C20.6569 22 22 20.6569 22 19V5C22 3.34315 20.6569 2 19 2H5Z" fill="#25282D"/>
<path fill-rule="evenodd" clip-rule="evenodd" d="M8.70718 12.121C8.31666 11.7305 7.68349 11.7305 7.29297 12.121L3.70718 15.7068L2.29297 14.2926L5.87876 10.7068C7.05033 9.53523 8.94982 9.53523 10.1214 10.7068L19.9572 20.5426L18.543 21.9568L8.70718 12.121Z" fill="#25282D"/>
<path fill-rule="evenodd" clip-rule="evenodd" d="M16.7072 14.121C16.3167 13.7305 15.6835 13.7305 15.293 14.121L13.7072 15.7068L12.293 14.2926L13.8788 12.7068C15.0503 11.5352 16.9498 11.5352 18.1214 12.7068L21.7072 16.2926L20.293 17.7068L16.7072 14.121Z" fill="#25282D"/>
<path fill-rule="evenodd" clip-rule="evenodd" d="M16 10C17.1046 10 18 9.10457 18 8C18 6.89543 17.1046 6 16 6C14.8954 6 14 6.89543 14 8C14 9.10457 14.8954 10 16 10Z" fill="#25282D"/>
</svg>
