<svg width="24" height="24" viewBox="0 0 24 24" fill="none" xmlns="http://www.w3.org/2000/svg">
<path d="M12 1C18.0751 1 23 5.92487 23 12C23 18.0751 18.0751 23 12 23C5.92487 23 0.999999 18.0751 1 12C1 5.92487 5.92487 1 12 1ZM12 9.75C11.4477 9.75 11 10.1977 11 10.75V16.75C11 17.3023 11.4477 17.75 12 17.75C12.5523 17.75 13 17.3023 13 16.75V10.75C13 10.1977 12.5523 9.75 12 9.75ZM12 6.25C11.3096 6.25 10.75 6.80964 10.75 7.5C10.75 8.19036 11.3096 8.75 12 8.75C12.6904 8.75 13.25 8.19035 13.25 7.5C13.25 6.80965 12.6904 6.25 12 6.25Z" fill="#25282D"/>
</svg>
