<svg width="24" height="24" viewBox="0 0 24 24" fill="none" xmlns="http://www.w3.org/2000/svg">
<path d="M13.25 7.5C13.25 8.19036 12.6904 8.75 12 8.75C11.3096 8.75 10.75 8.19036 10.75 7.5C10.75 6.80964 11.3096 6.25 12 6.25C12.6904 6.25 13.25 6.80965 13.25 7.5Z" fill="#25282D"/>
<path d="M12 17.75C12.5523 17.75 13 17.3023 13 16.75L13 10.75C13 10.1977 12.5523 9.75 12 9.75C11.4477 9.75 11 10.1977 11 10.75L11 16.75C11 17.3023 11.4477 17.75 12 17.75Z" fill="#25282D"/>
<path fill-rule="evenodd" clip-rule="evenodd" d="M12 1C5.92487 1 1 5.92487 1 12C0.999999 18.0751 5.92487 23 12 23C18.0751 23 23 18.0751 23 12C23 5.92487 18.0751 1 12 1ZM12 3C7.02944 3 3 7.02944 3 12C3 16.9706 7.02944 21 12 21C16.9706 21 21 16.9706 21 12C21 7.02944 16.9706 3 12 3Z" fill="#25282D"/>
</svg>
