<svg width="24" height="24" viewBox="0 0 24 24" fill="none" xmlns="http://www.w3.org/2000/svg">
<path fill-rule="evenodd" clip-rule="evenodd" d="M6.5 6.5C6.5 3.46243 8.96243 1 12 1C15.0376 1 17.5 3.46243 17.5 6.5V8.5H18C19.6569 8.5 21 9.84315 21 11.5V20C21 21.6569 19.6569 23 18 23H6C4.34315 23 3 21.6569 3 20V11.5C3 9.84315 4.34315 8.5 6 8.5H6.5V6.5ZM9 8.5H15V6.5C15 4.84315 13.6569 3.5 12 3.5C10.3431 3.5 9 4.84315 9 6.5V8.5ZM11 14.5C11 13.9477 11.4477 13.5 12 13.5C12.5523 13.5 13 13.9477 13 14.5V17.5C13 18.0523 12.5523 18.5 12 18.5C11.4477 18.5 11 18.0523 11 17.5V14.5Z" fill="#25282D"/>
</svg>
