<svg width="20" height="20" viewBox="0 0 20 20" fill="none" xmlns="http://www.w3.org/2000/svg">
<path d="M14.0344 6.03962C14.3591 5.75551 14.8421 5.76861 15.151 6.05671L15.2104 6.11774L18.127 9.45108C18.4059 9.7698 18.4013 10.2473 18.1165 10.5607C17.3833 11.3671 16.6591 12.1949 16.1173 12.8218C15.8468 13.135 15.6223 13.3975 15.4655 13.5815C15.3872 13.6735 15.3257 13.7459 15.284 13.7952C15.2632 13.8198 15.2471 13.8387 15.2364 13.8513C15.2311 13.8575 15.2273 13.8624 15.2246 13.8655C15.2233 13.8671 15.222 13.8684 15.2214 13.8692L15.2209 13.87C14.9244 14.222 14.3982 14.2671 14.0462 13.9705C13.6944 13.674 13.6496 13.1481 13.9461 12.7962L13.9473 12.795C13.9481 12.7941 13.9492 12.7926 13.9506 12.7909C13.9535 12.7875 13.9578 12.7827 13.9632 12.7763C13.9743 12.7631 13.9907 12.7437 14.012 12.7185C14.0547 12.6681 14.1173 12.5945 14.1968 12.5012C14.3557 12.3146 14.5828 12.0488 14.8564 11.7322C15.0882 11.4639 15.3539 11.1586 15.6396 10.8333H9.16667C8.70644 10.8333 8.33334 10.4602 8.33333 9.99999C8.33333 9.53975 8.70643 9.16665 9.16667 9.16665H15.6637L13.9563 7.21556L13.9034 7.14842C13.6588 6.80413 13.7098 6.32377 14.0344 6.03962Z" fill="#25282D"/>
<path d="M12.9167 1.25C14.2974 1.25 15.4167 2.36929 15.4167 3.75V4.16667C15.4167 4.6269 15.0436 5 14.5833 5C14.1231 5 13.75 4.6269 13.75 4.16667V3.75C13.75 3.28976 13.3769 2.91667 12.9167 2.91667H6.25C5.78976 2.91667 5.41667 3.28976 5.41667 3.75V16.25C5.41667 16.7102 5.78976 17.0833 6.25 17.0833H12.9167C13.3769 17.0833 13.75 16.7102 13.75 16.25V15.8333C13.75 15.3731 14.1231 15 14.5833 15C15.0436 15 15.4167 15.3731 15.4167 15.8333V16.25C15.4167 17.6307 14.2974 18.75 12.9167 18.75H6.25C4.86929 18.75 3.75 17.6307 3.75 16.25V3.75C3.75 2.36929 4.86929 1.25 6.25 1.25H12.9167Z" fill="#25282D"/>
</svg>
