<svg width="24" height="24" viewBox="0 0 24 24" fill="none" xmlns="http://www.w3.org/2000/svg">
<path d="M1.08484 5.78863L10.9 13.15C11.6111 13.6833 12.5889 13.6833 13.3 13.15L22.9435 5.9174C22.6723 4.5394 21.4575 3.5 20 3.5H4C2.58824 3.5 1.40425 4.47516 1.08484 5.78863Z" fill="#25282D"/>
<path d="M23 8.375L16.7667 13.05L22.9921 17.719C22.9973 17.6467 23 17.5737 23 17.5V8.375Z" fill="#25282D"/>
<path d="M22.1527 19.5895L15.1 14.3L14.5 14.75C13.0778 15.8167 11.1222 15.8167 9.7 14.75L9.09996 14.3L1.93353 19.6748C2.47155 20.1862 3.19913 20.5 4 20.5H20C20.8445 20.5 21.6075 20.1511 22.1527 19.5895Z" fill="#25282D"/>
<path d="M1.02126 17.859L7.4333 13.05L1 8.225V17.5C1 17.6215 1.00722 17.7413 1.02126 17.859Z" fill="#25282D"/>
</svg>
