<svg width="24" height="24" viewBox="0 0 24 24" fill="none" xmlns="http://www.w3.org/2000/svg">
<path fill-rule="evenodd" clip-rule="evenodd" d="M1 6.5C1 4.84315 2.34315 3.5 4 3.5H20C21.6569 3.5 23 4.84315 23 6.5V17.5C23 19.1569 21.6569 20.5 20 20.5H4C2.34315 20.5 1 19.1569 1 17.5V6.5ZM4 5.5H20C20.5523 5.5 21 5.94772 21 6.5V7.37501L13.3 13.15C12.5889 13.6833 11.6111 13.6833 10.9 13.15L3 7.22501V6.5C3 5.94772 3.44772 5.5 4 5.5ZM3 9.72501V16.375L7.4333 13.05L3 9.72501ZM3.6069 18.4198C3.72756 18.4714 3.86044 18.5 4 18.5H20C20.1872 18.5 20.3624 18.4486 20.5122 18.3591L15.1 14.3L14.5 14.75C13.0778 15.8167 11.1222 15.8167 9.7 14.75L9.09996 14.3L3.6069 18.4198ZM21 16.225V9.87501L16.7667 13.05L21 16.225Z" fill="#25282D"/>
</svg>
