<svg width="24" height="24" viewBox="0 0 24 24" fill="none" xmlns="http://www.w3.org/2000/svg">
<path d="M12 16.4C14.5211 16.4 16.5714 14.4255 16.5714 12V5.4C16.5714 2.9734 14.5211 1 12 1C9.47886 1 7.42857 2.9734 7.42857 5.4V12C7.42857 14.4255 9.47886 16.4 12 16.4ZM20 12V9.8C20 9.50826 19.8796 9.22847 19.6653 9.02218C19.4509 8.81589 19.1602 8.7 18.8571 8.7C18.554 8.7 18.2633 8.81589 18.049 9.02218C17.8347 9.22847 17.7143 9.50826 17.7143 9.8V12C17.7143 15.0327 15.1509 17.5 12 17.5C8.84914 17.5 6.28571 15.0327 6.28571 12V9.8C6.28571 9.50826 6.16531 9.22847 5.95098 9.02218C5.73665 8.81589 5.44596 8.7 5.14286 8.7C4.83975 8.7 4.54906 8.81589 4.33474 9.02218C4.12041 9.22847 4 9.50826 4 9.8V12C4 15.872 6.98629 19.0752 10.8571 19.612V20.8H7.42857C7.12547 20.8 6.83478 20.9159 6.62045 21.1222C6.40612 21.3285 6.28571 21.6083 6.28571 21.9C6.28571 22.1917 6.40612 22.4715 6.62045 22.6778C6.83478 22.8841 7.12547 23 7.42857 23H16.5714C16.8745 23 17.1652 22.8841 17.3796 22.6778C17.5939 22.4715 17.7143 22.1917 17.7143 21.9C17.7143 21.6083 17.5939 21.3285 17.3796 21.1222C17.1652 20.9159 16.8745 20.8 16.5714 20.8H13.1429V19.612C17.0137 19.0752 20 15.872 20 12Z" fill="#25282D"/>
</svg>
