<svg width="24" height="24" viewBox="0 0 24 24" fill="none" xmlns="http://www.w3.org/2000/svg">
<circle cx="12" cy="12" r="11" fill="#25282D"/>
<path d="M15.2337 7.19995C15.786 7.19995 16.2337 7.64767 16.2337 8.19995V16.3812C16.2337 16.9335 15.786 17.3812 15.2337 17.3812H14.93C14.6016 17.3812 14.2942 17.22 14.1074 16.9499L9.93374 10.9125H9.84936V16.3812C9.84936 16.9335 9.40165 17.3812 8.84937 17.3812H8.73999C8.18771 17.3812 7.73999 16.9335 7.73999 16.3812V8.19995C7.73999 7.64767 8.18771 7.19995 8.73999 7.19995H9.06997C9.3994 7.19995 9.7077 7.3622 9.89422 7.63373L14.04 13.6687H14.1384V8.19995C14.1384 7.64767 14.5861 7.19995 15.1384 7.19995H15.2337Z" fill="white"/>
</svg>
