<svg width="24" height="24" viewBox="0 0 24 24" fill="none" xmlns="http://www.w3.org/2000/svg">
<circle cx="12" cy="12" r="11" fill="#25282D"/>
<path d="M11.9869 17C10.7628 17 9.79235 16.6944 9.07541 16.0833C8.35847 15.4548 8 14.6254 8 13.5952C8 13.054 8.11366 12.5651 8.34098 12.1286C8.58579 11.6921 8.91803 11.3341 9.3377 11.0548C8.77814 10.496 8.49836 9.82381 8.49836 9.0381C8.49836 8.13016 8.82186 7.39683 9.46885 6.8381C10.1158 6.27937 10.9464 6 11.9607 6C12.9923 6 13.8404 6.2881 14.5049 6.86429C15.1694 7.44048 15.5016 8.16508 15.5016 9.0381C15.5016 9.84127 15.2131 10.5135 14.6361 11.0548C15.5454 11.6659 16 12.5127 16 13.5952C16 14.6254 15.6415 15.4548 14.9246 16.0833C14.2076 16.6944 13.2284 17 11.9869 17ZM11.9869 14.9833C12.529 14.9833 12.9574 14.8524 13.2721 14.5905C13.5869 14.3286 13.7443 13.9794 13.7443 13.5429C13.7443 13.0889 13.5869 12.731 13.2721 12.469C12.9574 12.2071 12.529 12.0762 11.9869 12.0762C11.4623 12.0762 11.0426 12.2071 10.7279 12.469C10.4131 12.731 10.2557 13.0889 10.2557 13.5429C10.2557 13.9794 10.4131 14.3286 10.7279 14.5905C11.0426 14.8524 11.4623 14.9833 11.9869 14.9833ZM11.9607 10.2167C12.3104 10.2167 12.6077 10.1032 12.8525 9.87619C13.1148 9.63175 13.2459 9.35238 13.2459 9.0381C13.2459 8.67143 13.1235 8.38333 12.8787 8.17381C12.6514 7.94683 12.3454 7.83333 11.9607 7.83333C11.5934 7.83333 11.2874 7.9381 11.0426 8.14762C10.8153 8.35714 10.7016 8.65397 10.7016 9.0381C10.7016 9.35238 10.824 9.63175 11.0689 9.87619C11.3137 10.1032 11.6109 10.2167 11.9607 10.2167Z" fill="white"/>
</svg>
