<svg width="24" height="24" viewBox="0 0 24 24" fill="none" xmlns="http://www.w3.org/2000/svg">
<circle cx="12" cy="12" r="11" fill="#25282D"/>
<path d="M11.92 16.9993C11.0311 16.9819 10.2578 16.816 9.6 16.5017C8.94222 16.1875 8.46222 15.7422 8.16 15.1661C8.05333 14.9566 8 14.7733 8 14.6161C8 14.2844 8.14222 14.0225 8.42667 13.8305C8.71111 13.6384 9.00444 13.5424 9.30667 13.5424C9.50222 13.5424 9.68 13.5773 9.84 13.6471C10 13.717 10.1156 13.8392 10.1867 14.0138C10.5067 14.6947 11.1111 15.0351 12 15.0351C12.4622 15.0351 12.8444 14.8955 13.1467 14.6161C13.4667 14.3193 13.6267 13.9527 13.6267 13.5162C13.6267 12.5036 12.9067 12.0234 11.4667 12.0758C11.1467 12.0933 10.8889 12.0147 10.6933 11.8401C10.4978 11.6481 10.4 11.4036 10.4 11.1068C10.4 10.81 10.4889 10.5743 10.6667 10.3997C10.8622 10.2251 11.1022 10.1378 11.3867 10.1378C12.0267 10.1378 12.4711 10.0505 12.72 9.87595C12.9867 9.70136 13.12 9.39582 13.12 8.95934C13.12 8.61015 13.0044 8.357 12.7733 8.19986C12.5422 8.02527 12.2756 7.93797 11.9733 7.93797C11.6889 7.93797 11.4133 7.99908 11.1467 8.1213C10.88 8.24351 10.6667 8.4181 10.5067 8.64507C10.3822 8.81966 10.24 8.94188 10.08 9.01172C9.92 9.06409 9.75111 9.09028 9.57333 9.09028C9.27111 9.09028 8.99556 9.00299 8.74667 8.82839C8.51556 8.63634 8.4 8.39191 8.4 8.09511C8.4 7.97289 8.42667 7.85068 8.48 7.72846C8.76444 7.16977 9.21778 6.74202 9.84 6.44521C10.48 6.1484 11.1822 6 11.9467 6C12.9956 6 13.84 6.27062 14.48 6.81185C15.12 7.33563 15.44 8.034 15.44 8.90696C15.44 9.72754 15.1111 10.4172 14.4533 10.9759C14.9156 11.2028 15.2889 11.552 15.5733 12.0234C15.8578 12.4774 16 12.9575 16 13.4638C16 14.5288 15.6178 15.3931 14.8533 16.0565C14.1067 16.7025 13.1289 17.0168 11.92 16.9993Z" fill="white"/>
</svg>
