<svg width="24" height="24" viewBox="0 0 24 24" fill="none" xmlns="http://www.w3.org/2000/svg">
<circle cx="12" cy="12" r="11" fill="#25282D"/>
<path d="M10.7932 17C10.4859 17 10.1966 16.9028 9.92542 16.7084C9.67232 16.4964 9.54576 16.2225 9.54576 15.8867C9.54576 15.71 9.58192 15.551 9.65424 15.4096L13.0712 8.75663C13.1073 8.68594 13.1254 8.59759 13.1254 8.49157C13.1254 8.29719 12.9898 8.2 12.7186 8.2H9.22034C8.87684 8.2 8.58757 8.10281 8.35254 7.90843C8.11751 7.69639 8 7.43133 8 7.11325C8 6.77751 8.11751 6.51245 8.35254 6.31807C8.58757 6.10602 8.87684 6 9.22034 6H14.2102C14.7525 6 15.1864 6.14137 15.5119 6.4241C15.8373 6.70683 16 7.09558 16 7.59036C16 7.89076 15.9277 8.22651 15.7831 8.59759L11.9051 16.2313C11.7966 16.4964 11.6339 16.6908 11.4169 16.8145C11.2181 16.9382 11.0102 17 10.7932 17Z" fill="white"/>
</svg>
