<svg width="24" height="24" viewBox="0 0 24 24" fill="none" xmlns="http://www.w3.org/2000/svg">
<circle cx="12" cy="12" r="11" fill="#25282D"/>
<path d="M8 11.4214C8 9.71032 8.32889 8.38333 8.98667 7.44048C9.66222 6.48016 10.6578 6 11.9733 6C13.3067 6 14.3111 6.48016 14.9867 7.44048C15.6622 8.38333 16 9.70159 16 11.3952C16 13.0889 15.6622 14.4508 14.9867 15.481C14.3111 16.4937 13.3067 17 11.9733 17C10.6578 17 9.66222 16.5024 8.98667 15.5071C8.32889 14.5119 8 13.15 8 11.4214ZM10.3467 11.4214C10.3467 12.5563 10.4622 13.4119 10.6933 13.9881C10.9422 14.5468 11.3689 14.8262 11.9733 14.8262C12.5956 14.8262 13.0311 14.5294 13.28 13.9357C13.5289 13.3421 13.6533 12.4865 13.6533 11.369C13.6533 10.2516 13.5289 9.44841 13.28 8.95952C13.0489 8.45317 12.6222 8.2 12 8.2C11.3956 8.2 10.9689 8.45317 10.72 8.95952C10.4711 9.46587 10.3467 10.2865 10.3467 11.4214Z" fill="white"/>
</svg>
