<svg width="24" height="24" viewBox="0 0 24 24" fill="none" xmlns="http://www.w3.org/2000/svg">
<circle cx="12" cy="12" r="11" fill="#25282D"/>
<path d="M12.7222 17C12.3889 17 12.0926 16.8865 11.8333 16.6595C11.5926 16.4325 11.4722 16.1706 11.4722 15.8738V8.93333C11.4722 8.68889 11.3611 8.62778 11.1389 8.75L10.6389 9.0119C10.5648 9.04683 10.4907 9.07302 10.4167 9.09048C10.3426 9.09048 10.2685 9.09048 10.1944 9.09048C9.84259 9.09048 9.55556 8.98571 9.33333 8.77619C9.11111 8.54921 9 8.26984 9 7.9381C9 7.48413 9.25926 7.15238 9.77778 6.94286L11.9167 6.13095C12.1574 6.04365 12.3704 6 12.5556 6C12.9815 6 13.3241 6.12222 13.5833 6.36667C13.8611 6.61111 14 6.93413 14 7.33571L13.9722 15.9262C13.9722 16.2405 13.8519 16.5024 13.6111 16.7119C13.3889 16.904 13.0926 17 12.7222 17Z" fill="white"/>
</svg>
