<svg width="24" height="24" viewBox="0 0 24 24" fill="none" xmlns="http://www.w3.org/2000/svg">
<circle cx="12" cy="12" r="11" fill="#25282D"/>
<path d="M13.2866 17C12.9463 17 12.6687 16.9127 12.4537 16.7381C12.2388 16.581 12.1313 16.3627 12.1313 16.0833V15.219C12.1313 14.9921 12.0149 14.8786 11.7821 14.8786H8.15522C7.79701 14.8786 7.51045 14.7476 7.29552 14.4857C7.09851 14.2238 7 13.9357 7 13.6214C7 13.4992 7.01791 13.377 7.05373 13.2548C7.08955 13.1325 7.14328 13.019 7.21493 12.9143L11.6209 6.60238C11.7642 6.39286 11.9701 6.24444 12.2388 6.15714C12.5254 6.05238 12.794 6 13.0448 6C13.4567 6 13.7881 6.12222 14.0388 6.36667C14.2896 6.59365 14.4239 6.88175 14.4418 7.23095V12.3119C14.4418 12.5389 14.5582 12.6524 14.791 12.6524H14.9522C15.2746 12.6524 15.5254 12.7484 15.7045 12.9405C15.9015 13.1325 16 13.4032 16 13.7524C16 14.0841 15.9015 14.3548 15.7045 14.5643C15.5254 14.7738 15.2746 14.8786 14.9522 14.8786H14.791C14.5582 14.8786 14.4418 14.9921 14.4418 15.219V16.0833C14.4418 16.3627 14.3343 16.581 14.1194 16.7381C13.9224 16.9127 13.6448 17 13.2866 17ZM10.1701 12.6524H11.9164C12.1493 12.6524 12.2657 12.5389 12.2657 12.3119V9.5881C12.2657 9.43095 12.194 9.35238 12.0507 9.35238C11.9791 9.35238 11.9164 9.39603 11.8627 9.48333L10.009 12.3381C9.97313 12.4079 9.95522 12.4603 9.95522 12.4952C9.95522 12.6 10.0269 12.6524 10.1701 12.6524Z" fill="white"/>
</svg>
