<svg width="24" height="24" viewBox="0 0 24 24" fill="none" xmlns="http://www.w3.org/2000/svg">
<circle cx="12" cy="12" r="11" fill="#25282D"/>
<path d="M12 17C10.8089 17 9.84 16.6376 9.09333 15.9129C8.36444 15.171 8 14.2306 8 13.0918C8 12.0737 8.22222 11.0988 8.66667 10.1671C9.11111 9.23529 9.67111 8.41569 10.3467 7.70824C11.04 7.00078 11.7244 6.48314 12.4 6.15529C12.6133 6.05176 12.8178 6 13.0133 6C13.3511 6 13.6267 6.11216 13.84 6.33647C14.0533 6.56078 14.16 6.81098 14.16 7.08706C14.16 7.4149 14 7.68235 13.68 7.88941C13.4667 8.0102 13.1378 8.22588 12.6933 8.53647C12.2667 8.8298 11.8489 9.25255 11.44 9.80471C11.4222 9.82196 11.4222 9.84784 11.44 9.88235C11.4578 9.91686 11.4844 9.93412 11.52 9.93412C11.68 9.89961 11.8311 9.87373 11.9733 9.85647C12.1156 9.82196 12.2489 9.80471 12.3733 9.80471C13.0667 9.80471 13.6889 9.96 14.24 10.2706C14.7911 10.5812 15.2178 11.0039 15.52 11.5388C15.84 12.0737 16 12.6776 16 13.3506C16 14.4204 15.6178 15.3004 14.8533 15.9906C14.1067 16.6635 13.1556 17 12 17ZM11.9467 14.9294C12.48 14.9294 12.8978 14.7827 13.2 14.4894C13.52 14.1961 13.68 13.8078 13.68 13.3247C13.68 12.8243 13.52 12.4361 13.2 12.16C12.8978 11.8667 12.48 11.72 11.9467 11.72C11.4489 11.72 11.0489 11.8667 10.7467 12.16C10.4622 12.4361 10.32 12.8243 10.32 13.3247C10.32 13.8078 10.4622 14.1961 10.7467 14.4894C11.0489 14.7827 11.4489 14.9294 11.9467 14.9294Z" fill="white"/>
</svg>
