<svg width="24" height="24" viewBox="0 0 24 24" fill="none" xmlns="http://www.w3.org/2000/svg">
<circle cx="12" cy="12" r="11" fill="#25282D"/>
<path d="M9.57456 17C9.23114 17 8.93292 16.884 8.67987 16.6521C8.44491 16.4201 8.32742 16.1346 8.32742 15.7956C8.32742 15.3852 8.50817 15.0105 8.86966 14.6715L11.0115 12.7178C11.8067 11.9862 12.358 11.3885 12.6653 10.9246C12.9725 10.4428 13.1262 9.96107 13.1262 9.47932C13.1262 9.06894 12.9997 8.73885 12.7466 8.48905C12.5116 8.23925 12.1863 8.11436 11.7706 8.11436C11.373 8.11436 11.0476 8.23033 10.7946 8.46229C10.5415 8.69424 10.3698 9.00649 10.2795 9.39903C10.2252 9.66667 10.0897 9.8897 9.87278 10.0681C9.67397 10.2287 9.42092 10.309 9.11366 10.309C8.78832 10.309 8.51721 10.2019 8.30031 9.98783C8.08342 9.77372 7.98401 9.515 8.00209 9.21168C8.03823 8.26602 8.4178 7.49878 9.14077 6.90998C9.88182 6.30333 10.8036 6 11.9062 6C13.0268 6 13.9124 6.32117 14.5631 6.9635C15.2318 7.588 15.5662 8.39984 15.5662 9.39903C15.5662 10.0235 15.4035 10.6212 15.0782 11.1922C14.7709 11.7453 14.301 12.3341 13.6684 12.9586L12.1502 14.4574C11.861 14.7429 11.9242 14.8856 12.3399 14.8856L14.8071 14.8321C15.1686 14.8143 15.4578 14.9124 15.6747 15.1265C15.8916 15.3228 16 15.5904 16 15.9294C16 16.2506 15.9006 16.5093 15.7018 16.7056C15.503 16.9019 15.2409 17 14.9155 17H9.57456Z" fill="white"/>
</svg>
