<svg width="24" height="24" viewBox="0 0 24 24" fill="none" xmlns="http://www.w3.org/2000/svg">
<circle cx="12" cy="12" r="11" fill="#25282D"/>
<path d="M10.9867 17C10.6489 17 10.3733 16.8878 10.16 16.6635C9.94667 16.4392 9.84 16.189 9.84 15.9129C9.84 15.5851 10 15.3176 10.32 15.1106C10.5156 14.9898 10.8444 14.7655 11.3067 14.4376C11.7867 14.1098 12.2222 13.7043 12.6133 13.2212C12.6489 13.1867 12.6489 13.1522 12.6133 13.1176C12.5956 13.0831 12.56 13.0745 12.5067 13.0918C12.2933 13.1435 12.1156 13.178 11.9733 13.1953C11.8311 13.1953 11.7156 13.1953 11.6267 13.1953C10.9333 13.1953 10.3111 13.04 9.76 12.7294C9.22667 12.4188 8.8 11.9961 8.48 11.4612C8.16 10.9263 8 10.3224 8 9.64941C8 8.57961 8.38222 7.70824 9.14667 7.03529C9.91111 6.3451 10.8622 6 12 6C13.2089 6 14.1778 6.37098 14.9067 7.11294C15.6356 7.83765 16 8.76941 16 9.90824C16 10.909 15.7778 11.8753 15.3333 12.8071C14.8889 13.7388 14.3289 14.5584 13.6533 15.2659C12.9778 15.9733 12.2933 16.4996 11.6 16.8447C11.3867 16.9482 11.1822 17 10.9867 17ZM12.0533 11.28C12.5689 11.28 12.9689 11.1333 13.2533 10.84C13.5378 10.5467 13.68 10.1584 13.68 9.67529C13.68 9.1749 13.5378 8.78667 13.2533 8.51059C12.9689 8.21726 12.5689 8.07059 12.0533 8.07059C11.52 8.07059 11.0933 8.21726 10.7733 8.51059C10.4711 8.78667 10.32 9.1749 10.32 9.67529C10.32 10.1584 10.4711 10.5467 10.7733 10.84C11.0933 11.1333 11.52 11.28 12.0533 11.28Z" fill="white"/>
</svg>
