<svg width="24" height="24" viewBox="0 0 24 24" fill="none" xmlns="http://www.w3.org/2000/svg">
<circle cx="12" cy="12" r="11" fill="#25282D"/>
<path d="M11.531 17C11.0713 17 10.6023 16.9382 10.1241 16.8145C9.64598 16.6908 9.1954 16.4964 8.77241 16.2313C8.25747 15.9663 8 15.5775 8 15.0651C8 14.7647 8.11954 14.4908 8.35862 14.2434C8.5977 13.9783 8.86437 13.8458 9.15862 13.8458C9.45287 13.8458 9.71954 13.943 9.95862 14.1373C10.2529 14.3671 10.5563 14.5349 10.869 14.641C11.2 14.747 11.5126 14.8 11.8069 14.8C12.2851 14.8 12.6897 14.6675 13.0207 14.4024C13.3701 14.1197 13.5448 13.7133 13.5448 13.1831C13.5448 12.6177 13.3609 12.2289 12.9931 12.0169C12.6253 11.7871 12.1747 11.6723 11.6414 11.6723C11.3103 11.6723 10.9609 11.7076 10.5931 11.7783C10.2253 11.849 9.85747 11.9285 9.48966 12.0169C9.23218 12.0169 9.02069 11.9462 8.85517 11.8048C8.68966 11.6635 8.62529 11.4337 8.66207 11.1157L9.15862 7.35181C9.21379 6.89237 9.34253 6.5743 9.54483 6.39759C9.74713 6.20321 9.95862 6.08835 10.1793 6.05301C10.4184 6.01767 10.6391 6 10.8414 6C10.8598 6 10.869 6 10.869 6H14.2897C14.6575 6 14.9425 6.09719 15.1448 6.29157C15.3655 6.46827 15.4759 6.71566 15.4759 7.03374C15.4759 7.36948 15.3655 7.64337 15.1448 7.85542C14.9241 8.0498 14.6391 8.14699 14.2897 8.14699H11.7793C11.5034 8.14699 11.3379 8.27952 11.2828 8.54458L11.0621 9.92289C11.4299 9.7992 11.8345 9.73735 12.2759 9.73735C12.9195 9.73735 13.5172 9.87872 14.069 10.1614C14.6391 10.4442 15.0989 10.8329 15.4483 11.3277C15.8161 11.8225 16 12.3968 16 13.0506C16 13.8811 15.7885 14.5968 15.3655 15.1976C14.9425 15.7807 14.3908 16.2313 13.7103 16.5494C13.0299 16.8498 12.3034 17 11.531 17Z" fill="white"/>
</svg>
