<svg width="24" height="24" viewBox="0 0 24 24" fill="none" xmlns="http://www.w3.org/2000/svg">
<path d="M9.5 11C8.94772 11 8.5 11.4477 8.5 12C8.5 12.5523 8.94772 13 9.5 13H14.5C15.0523 13 15.5 12.5523 15.5 12C15.5 11.4477 15.0523 11 14.5 11H9.5Z" fill="#25282D"/>
<path fill-rule="evenodd" clip-rule="evenodd" d="M22 8.48683C22 8.16439 21.948 7.84405 21.8461 7.53815L20.6838 4.05132C20.2754 2.82629 19.129 2 17.8377 2H6.16228C4.87099 2 3.72457 2.82629 3.31623 4.05132L2.15395 7.53815C2.05198 7.84405 2 8.16439 2 8.48683V19C2 20.6569 3.34315 22 5 22H19C20.6569 22 22 20.6569 22 19V8.48683ZM13 4H17.8377C18.2682 4 18.6503 4.27543 18.7864 4.68377L19.5585 7H13V4ZM4 9H20V19C20 19.5523 19.5523 20 19 20H5C4.44772 20 4 19.5523 4 19V9ZM11 7H4.44152L5.21359 4.68377C5.34971 4.27543 5.73185 4 6.16228 4H11V7Z" fill="#25282D"/>
</svg>
