<svg width="24" height="24" viewBox="0 0 24 24" fill="none" xmlns="http://www.w3.org/2000/svg">
<path fill-rule="evenodd" clip-rule="evenodd" d="M20 5.5H4C3.44772 5.5 3 5.94772 3 6.5V17.5C3 18.0523 3.44772 18.5 4 18.5H20C20.5523 18.5 21 18.0523 21 17.5V6.5C21 5.94772 20.5523 5.5 20 5.5ZM4 3.5C2.34315 3.5 1 4.84315 1 6.5V17.5C1 19.1569 2.34315 20.5 4 20.5H20C21.6569 20.5 23 19.1569 23 17.5V6.5C23 4.84315 21.6569 3.5 20 3.5H4Z" fill="#25282D"/>
<path fill-rule="evenodd" clip-rule="evenodd" d="M1 9.5C1 8.94772 1.44772 8.5 2 8.5H22C22.5523 8.5 23 8.94772 23 9.5C23 10.0523 22.5523 10.5 22 10.5H2C1.44772 10.5 1 10.0523 1 9.5Z" fill="#25282D"/>
<path fill-rule="evenodd" clip-rule="evenodd" d="M14 15.5C14 14.9477 14.4477 14.5 15 14.5L18 14.5C18.5523 14.5 19 14.9477 19 15.5C19 16.0523 18.5523 16.5 18 16.5L15 16.5C14.4477 16.5 14 16.0523 14 15.5Z" fill="#25282D"/>
</svg>
