<svg width="24" height="24" viewBox="0 0 24 24" fill="none" xmlns="http://www.w3.org/2000/svg">
<path fill-rule="evenodd" clip-rule="evenodd" d="M17 7C17 9.76142 14.7614 12 12 12C9.23858 12 7 9.76142 7 7C7 4.23858 9.23858 2 12 2C14.7614 2 17 4.23858 17 7ZM15 7C15 8.65685 13.6569 10 12 10C10.3431 10 9 8.65685 9 7C9 5.34315 10.3431 4 12 4C13.6569 4 15 5.34315 15 7Z" fill="#25282D"/>
<path fill-rule="evenodd" clip-rule="evenodd" d="M3 19C3 15.6863 5.68629 13 9 13H15C18.3137 13 21 15.6863 21 19V20C21 21.1046 20.1046 22 19 22H5C3.89543 22 3 21.1046 3 20V19ZM5 19C5 16.7909 6.79086 15 9 15H15C17.2091 15 19 16.7909 19 19V20H5L5 19Z" fill="#25282D"/>
</svg>
