<svg width="24" height="24" viewBox="0 0 24 24" fill="none" xmlns="http://www.w3.org/2000/svg">
<path d="M21.8974 3H2.10264C1.49267 3 1 3.50133 1 4.12202V14.1963C1 14.817 1.49267 15.3183 2.10264 15.3183H5.41056V21H18.607V15.3183H21.8974C22.5073 15.3183 23 14.817 23 14.1963V4.11605C22.9941 3.50133 22.5015 3 21.8974 3ZM16.4076 18.75H7.60997V14.1844H16.4076V18.75ZM18.5953 11.9702H5.39883V9.7321H18.5953V11.9702ZM19.6979 7.47613C19.088 7.47613 18.5953 6.9748 18.5953 6.35411C18.5953 5.73342 19.088 5.2321 19.6979 5.2321C20.3079 5.2321 20.8006 5.73342 20.8006 6.35411C20.8006 6.9748 20.3021 7.47613 19.6979 7.47613Z" fill="#25282D"/>
</svg>
