<svg width="24" height="24" viewBox="0 0 24 24" fill="none" xmlns="http://www.w3.org/2000/svg">
<path fill-rule="evenodd" clip-rule="evenodd" d="M12 23C18.0751 23 23 18.0751 23 12C23 5.92487 18.0751 1 12 1C5.92487 1 1 5.92487 1 12C1 18.0751 5.92487 23 12 23ZM5 17.5C5 18.2702 5.19348 18.9951 5.53448 19.629C6.19622 20.1903 6.93195 20.6672 7.72498 21.0427C7.84599 21.1001 7.96834 21.155 8.09196 21.2075C9.2925 21.7177 10.6133 22 12 22C13.5295 22 14.9788 21.6566 16.275 21.0427C17.0681 20.6672 17.8038 20.1904 18.4655 19.629C18.8065 18.9951 19 18.2702 19 17.5C19 15.0147 16.9853 13 14.5 13H9.5C7.01472 13 5 15.0147 5 17.5ZM16 8C16 10.2091 14.2091 12 12 12C9.79086 12 8 10.2091 8 8C8 5.79086 9.79086 4 12 4C14.2091 4 16 5.79086 16 8Z" fill="#25282D"/>
</svg>
