<svg width="24" height="24" viewBox="0 0 24 24" fill="none" xmlns="http://www.w3.org/2000/svg">
<path fill-rule="evenodd" clip-rule="evenodd" d="M12 11C13.1046 11 14 10.1046 14 9C14 7.89543 13.1046 7 12 7C10.8954 7 10 7.89543 10 9C10 10.1046 10.8954 11 12 11ZM12 13C14.2091 13 16 11.2091 16 9C16 6.79086 14.2091 5 12 5C9.79086 5 8 6.79086 8 9C8 11.2091 9.79086 13 12 13Z" fill="#25282D"/>
<path fill-rule="evenodd" clip-rule="evenodd" d="M12 21C16.9706 21 21 16.9706 21 12C21 7.02944 16.9706 3 12 3C7.02944 3 3 7.02944 3 12C3 16.9706 7.02944 21 12 21ZM12 23C18.0751 23 23 18.0751 23 12C23 5.92487 18.0751 1 12 1C5.92487 1 1 5.92487 1 12C1 18.0751 5.92487 23 12 23Z" fill="#25282D"/>
<path fill-rule="evenodd" clip-rule="evenodd" d="M5.05317 18.5H5V20.4857C5.00579 20.4905 5.01158 20.4952 5.01738 20.5C6.91673 22.0621 9.34884 23 12 23C14.6512 23 17.0833 22.0621 18.9826 20.5C18.9884 20.4952 18.9942 20.4905 19 20.4857V18.5H18.9468C18.5829 15.9558 16.3949 14 13.75 14H10.25C7.60515 14 5.41709 15.9558 5.05317 18.5ZM17 19.014L16.967 18.7832C16.742 17.2101 15.3856 16 13.75 16H10.25C8.61443 16 7.25803 17.2101 7.03302 18.7832L7 19.014V19.4847C8.43 20.4424 10.148 21 12 21C13.852 21 15.57 20.4424 17 19.4847V19.014Z" fill="#25282D"/>
</svg>
