<svg width="24" height="24" viewBox="0 0 24 24" fill="none" xmlns="http://www.w3.org/2000/svg">
<g clip-path="url(#clip0_118_1722)">
<path d="M19.9825 3.3079C20.1658 3.3079 20.3416 3.38083 20.4711 3.51066C20.6007 3.6405 20.6735 3.81658 20.6735 4.00019V8.23358C20.6735 8.41719 20.7463 8.59328 20.8759 8.72311C21.0055 8.85294 21.1813 8.92588 21.3646 8.92588H22.2859C22.4692 8.92588 22.645 8.85294 22.7746 8.72311C22.9042 8.59328 22.977 8.41719 22.977 8.23358V4.00019C22.977 3.20456 22.6615 2.44151 22.0999 1.87891C21.5383 1.31631 20.7767 1.00024 19.9825 1.00024H15.7569C15.5736 1.00024 15.3978 1.07318 15.2683 1.20301C15.1387 1.33284 15.0659 1.50893 15.0659 1.69254V2.6156C15.0659 2.79921 15.1387 2.9753 15.2683 3.10513C15.3978 3.23496 15.5736 3.3079 15.7569 3.3079H19.9825ZM3.99445 3.31251C3.81118 3.31251 3.63541 3.38545 3.50582 3.51528C3.37623 3.64511 3.30342 3.8212 3.30342 4.00481V8.23819C3.30342 8.4218 3.23062 8.59789 3.10103 8.72772C2.97143 8.85755 2.79567 8.93049 2.6124 8.93049H1.69103C1.50776 8.93049 1.33199 8.85755 1.2024 8.72772C1.0728 8.59789 1 8.4218 1 8.23819V4.00481C1 3.20917 1.31549 2.44612 1.87705 1.88352C2.43862 1.32092 3.20027 1.00486 3.99445 1.00486H8.22008C8.40335 1.00486 8.57912 1.0778 8.70871 1.20763C8.8383 1.33746 8.91111 1.51355 8.91111 1.69716V2.62022C8.91111 2.80382 8.8383 2.97991 8.70871 3.10974C8.57912 3.23957 8.40335 3.31251 8.22008 3.31251H3.99445ZM10.755 7.47205C10.755 7.28845 10.6822 7.11236 10.5526 6.98253C10.423 6.8527 10.2472 6.77976 10.064 6.77976H7.20773C7.02446 6.77976 6.84869 6.8527 6.7191 6.98253C6.5895 7.11236 6.5167 7.28845 6.5167 7.47205V10.3324C6.5167 10.516 6.5895 10.6921 6.7191 10.8219C6.84869 10.9517 7.02446 11.0247 7.20773 11.0247H10.064C10.2472 11.0247 10.423 10.9517 10.5526 10.8219C10.6822 10.6921 10.755 10.516 10.755 10.3324V7.47205ZM10.755 13.6404C10.755 13.4568 10.6822 13.2807 10.5526 13.1509C10.423 13.0211 10.2472 12.9481 10.064 12.9481H7.20773C7.02446 12.9481 6.84869 13.0211 6.7191 13.1509C6.5895 13.2807 6.5167 13.4568 6.5167 13.6404V16.5019C6.5167 16.6855 6.5895 16.8616 6.7191 16.9914C6.84869 17.1213 7.02446 17.1942 7.20773 17.1942H10.064C10.2472 17.1942 10.423 17.1213 10.5526 16.9914C10.6822 16.8616 10.755 16.6855 10.755 16.5019V13.6404ZM17.1827 7.47205C17.1827 7.28845 17.1099 7.11236 16.9803 6.98253C16.8507 6.8527 16.6749 6.77976 16.4917 6.77976H13.6377C13.4545 6.77976 13.2787 6.8527 13.1491 6.98253C13.0195 7.11236 12.9467 7.28845 12.9467 7.47205V10.3324C12.9467 10.516 13.0195 10.6921 13.1491 10.8219C13.2787 10.9517 13.4545 11.0247 13.6377 11.0247H16.4917C16.6749 11.0247 16.8507 10.9517 16.9803 10.8219C17.1099 10.6921 17.1827 10.516 17.1827 10.3324V7.47205ZM17.1827 13.6404C17.1827 13.4568 17.1099 13.2807 16.9803 13.1509C16.8507 13.0211 16.6749 12.9481 16.4917 12.9481H13.6377C13.4545 12.9481 13.2787 13.0211 13.1491 13.1509C13.0195 13.2807 12.9467 13.4568 12.9467 13.6404V16.5019C12.9467 16.6855 13.0195 16.8616 13.1491 16.9914C13.2787 17.1213 13.4545 17.1942 13.6377 17.1942H16.4917C16.6749 17.1942 16.8507 17.1213 16.9803 16.9914C17.1099 16.8616 17.1827 16.6855 17.1827 16.5019V13.6404ZM20.6966 20.0003C20.6966 20.1839 20.6238 20.36 20.4942 20.4898C20.3646 20.6197 20.1888 20.6926 20.0055 20.6926H15.7799C15.5966 20.6926 15.4209 20.7655 15.2913 20.8954C15.1617 21.0252 15.0889 21.2013 15.0889 21.3849V22.308C15.0889 22.4916 15.1617 22.6676 15.2913 22.7975C15.4209 22.9273 15.5966 23.0002 15.7799 23.0002H20.0055C20.3988 23.0002 20.7882 22.9227 21.1515 22.7719C21.5148 22.6211 21.8449 22.4002 22.1229 22.1216C22.401 21.843 22.6216 21.5123 22.7721 21.1483C22.9225 20.7844 23 20.3943 23 20.0003V15.7669C23 15.5833 22.9272 15.4072 22.7976 15.2774C22.668 15.1476 22.4922 15.0746 22.309 15.0746H21.3876C21.2043 15.0746 21.0286 15.1476 20.899 15.2774C20.7694 15.4072 20.6966 15.5833 20.6966 15.7669V20.0003ZM3.34373 20.0003C3.34373 20.1839 3.41654 20.36 3.54613 20.4898C3.67572 20.6197 3.85149 20.6926 4.03476 20.6926H8.26039C8.44366 20.6926 8.61943 20.7655 8.74902 20.8954C8.87861 21.0252 8.95142 21.2013 8.95142 21.3849V22.308C8.95142 22.4916 8.87861 22.6676 8.74902 22.7975C8.61943 22.9273 8.44366 23.0002 8.26039 23.0002H4.03476C3.64152 23.0002 3.25214 22.9227 2.88883 22.7719C2.52553 22.6211 2.19542 22.4002 1.91736 22.1216C1.6393 21.843 1.41873 21.5123 1.26825 21.1483C1.11776 20.7844 1.04031 20.3943 1.04031 20.0003V15.7669C1.04031 15.5833 1.11311 15.4072 1.24271 15.2774C1.3723 15.1476 1.54807 15.0746 1.73134 15.0746H2.65271C2.83598 15.0746 3.01174 15.1476 3.14134 15.2774C3.27093 15.4072 3.34373 15.5833 3.34373 15.7669V20.0003Z" fill="#25282D"/>
</g>
<defs>
<clipPath id="clip0_118_1722">
<rect width="24" height="24" fill="white"/>
</clipPath>
</defs>
</svg>
