<svg width="24" height="24" viewBox="0 0 24 24" fill="none" xmlns="http://www.w3.org/2000/svg">
<path d="M12.0001 8.25C10.9818 8.25 10.501 8.87034 10.501 9.5C10.501 10.0523 10.0533 10.5 9.50098 10.5C8.94869 10.5 8.50098 10.0523 8.50098 9.5C8.50098 7.62966 10.0185 6.25 12.0001 6.25C13.9833 6.25 15.5001 7.63817 15.5001 9.5C15.5001 10.7887 14.6626 11.5524 14.1662 11.9958C13.9081 12.2264 13.667 12.3959 13.4819 12.5245C13.2786 12.6656 13.1862 12.73 13.1146 12.7963C13.0654 12.8418 13.0542 12.8638 13.0448 12.8871C13.0306 12.9226 13.0001 13.0223 13.0001 13.25C13.0001 13.8023 12.5524 14.25 12.0001 14.25C11.4478 14.25 11.0001 13.8023 11.0001 13.25C11.0001 12.8527 11.0521 12.4837 11.188 12.1441C11.3287 11.7925 11.535 11.5332 11.7559 11.3287C11.936 11.1619 12.1423 11.0192 12.296 10.913L12.341 10.8818C12.5159 10.7603 12.6722 10.6486 12.8338 10.5042C13.3374 10.0543 13.5001 9.82299 13.5001 9.5C13.5001 8.87587 13.0167 8.25 12.0001 8.25Z" fill="#25282D"/>
<path d="M12 15.25C11.3096 15.25 10.75 15.8096 10.75 16.5C10.75 17.1904 11.3096 17.75 12 17.75C12.6904 17.75 13.25 17.1904 13.25 16.5C13.25 15.8096 12.6904 15.25 12 15.25Z" fill="#25282D"/>
<path fill-rule="evenodd" clip-rule="evenodd" d="M12 23C18.0751 23 23 18.0751 23 12C23 5.92487 18.0751 1 12 1C5.92487 1 1 5.92487 1 12C1 18.0751 5.92487 23 12 23ZM12 21C16.9706 21 21 16.9706 21 12C21 7.02944 16.9706 3 12 3C7.02944 3 3 7.02944 3 12C3 16.9706 7.02944 21 12 21Z" fill="#25282D"/>
</svg>
