<svg width="24" height="24" viewBox="0 0 24 24" fill="none" xmlns="http://www.w3.org/2000/svg">
<path d="M12 1C18.0751 1 23 5.92487 23 12C23 18.0751 18.0751 23 12 23C5.92487 23 1 18.0751 1 12C1 5.92487 5.92487 1 12 1ZM12 15.25C11.3096 15.25 10.75 15.8096 10.75 16.5C10.75 17.1904 11.3096 17.75 12 17.75C12.6904 17.75 13.25 17.1904 13.25 16.5C13.25 15.8096 12.6904 15.25 12 15.25ZM12 6.25C10.0184 6.25004 8.50098 7.62968 8.50098 9.5C8.50098 10.0523 8.94869 10.5 9.50098 10.5C10.0533 10.5 10.501 10.0523 10.501 9.5C10.501 8.87036 10.9818 8.25003 12 8.25C13.0166 8.25 13.5 8.87587 13.5 9.5C13.5 9.82293 13.3374 10.0541 12.834 10.5039C12.6724 10.6483 12.5157 10.7604 12.3408 10.8818C12.3265 10.8918 12.3114 10.9024 12.2959 10.9131C12.1422 11.0194 11.936 11.1623 11.7559 11.3291C11.535 11.5336 11.3282 11.793 11.1875 12.1445C11.0518 12.4839 11 12.8529 11 13.25C11 13.8023 11.4478 14.25 12 14.25C12.5523 14.25 13 13.8023 13 13.25C13 13.0223 13.0307 12.9222 13.0449 12.8867C13.0542 12.8635 13.0654 12.8411 13.1143 12.7959C13.1858 12.7296 13.2784 12.6654 13.4814 12.5244C13.6665 12.3959 13.908 12.2266 14.166 11.9961C14.6624 11.5527 15.5 10.7887 15.5 9.5C15.5 7.63817 13.9832 6.25 12 6.25Z" fill="#25282D"/>
</svg>
