<svg width="24" height="24" viewBox="0 0 24 24" fill="none" xmlns="http://www.w3.org/2000/svg">
<path d="M8 6C7.44772 6 7 6.44772 7 7C7 7.55228 7.44772 8 8 8L16 8C16.5523 8 17 7.55228 17 7C17 6.44771 16.5523 6 16 6L8 6Z" fill="#25282D"/>
<path d="M7 11C7 10.4477 7.44772 10 8 10L16 10C16.5523 10 17 10.4477 17 11C17 11.5523 16.5523 12 16 12L8 12C7.44772 12 7 11.5523 7 11Z" fill="#25282D"/>
<path d="M8 14C7.44772 14 7 14.4477 7 15C7 15.5523 7.44772 16 8 16H13C13.5523 16 14 15.5523 14 15C14 14.4477 13.5523 14 13 14H8Z" fill="#25282D"/>
<path fill-rule="evenodd" clip-rule="evenodd" d="M18 23C18.0756 23 18.1505 22.9972 18.2247 22.9917C18.3157 22.9972 18.4075 23 18.5 23C20.9853 23 23 20.9853 23 18.5C23 16.9398 22.206 15.565 21 14.7578V4C21 2.34315 19.6569 1 18 1H6C4.34315 1 3 2.34315 3 4V20C3 21.6569 4.34315 23 6 23H18ZM14 18.5C14 19.4251 14.2791 20.285 14.7578 21H6C5.44772 21 5 20.5523 5 20V4C5 3.44772 5.44772 3 6 3H18C18.5523 3 19 3.44772 19 4V14.0275C18.8358 14.0093 18.669 14 18.5 14C16.0147 14 14 16.0147 14 18.5ZM18.5 16C19.8402 16 20.9341 17.0545 20.9971 18.3791C20.999 18.4191 21 18.4595 21 18.5C21 19.8807 19.8807 21 18.5 21C17.1193 21 16 19.8807 16 18.5C16 17.1193 17.1193 16 18.5 16Z" fill="#25282D"/>
</svg>
