<svg width="24" height="24" viewBox="0 0 24 24" fill="none" xmlns="http://www.w3.org/2000/svg">
<path fill-rule="evenodd" clip-rule="evenodd" d="M10.0491 2.63648C10.5187 0.557371 13.4813 0.557371 13.9509 2.63648L14.0071 2.8855C14.3115 4.23284 15.8577 4.87336 17.0256 4.13599L17.2415 3.99976C19.0437 2.86169 21.1383 4.95631 20.0003 6.75855L19.864 6.97437C19.1267 8.14235 19.7672 9.68851 21.1145 9.99293L21.3635 10.0491C23.4426 10.5187 23.4426 13.4813 21.3635 13.9509L21.1145 14.0071C19.7672 14.3115 19.1267 15.8577 19.864 17.0256L20.0003 17.2415C21.1383 19.0437 19.0437 21.1383 17.2415 20.0003L17.0256 19.864C15.8577 19.1267 14.3115 19.7672 14.0071 21.1145L13.9509 21.3635C13.4813 23.4426 10.5187 23.4426 10.0491 21.3635L9.99293 21.1145C9.68851 19.7672 8.14235 19.1267 6.97437 19.864L6.75855 20.0003C4.95631 21.1383 2.86169 19.0437 3.99976 17.2415L4.13599 17.0256C4.87336 15.8577 4.23284 14.3115 2.8855 14.0071L2.63648 13.9509C0.557371 13.4813 0.557371 10.5187 2.63648 10.0491L2.8855 9.99293C4.23284 9.68852 4.87337 8.14236 4.13599 6.97437L3.99976 6.75855C2.86169 4.95631 4.95631 2.86169 6.75855 3.99976L6.97437 4.13599C8.14236 4.87337 9.68852 4.23284 9.99293 2.8855L10.0491 2.63648ZM12.0003 8.00025C9.79111 8.00025 8.00025 9.79111 8.00025 12.0003C8.00038 14.2093 9.79119 16.0003 12.0003 16.0003C14.2092 16.0001 16.0001 14.2092 16.0003 12.0003C16.0003 9.79119 14.2093 8.00038 12.0003 8.00025Z" fill="#25282D"/>
</svg>
