<svg width="24" height="24" viewBox="0 0 24 24" fill="none" xmlns="http://www.w3.org/2000/svg">
<path fill-rule="evenodd" clip-rule="evenodd" d="M17 12C17 14.7614 14.7614 17 12 17C9.23858 17 7 14.7614 7 12C7 9.23858 9.23858 7 12 7C14.7614 7 17 9.23858 17 12ZM15 12C15 13.6569 13.6569 15 12 15C10.3431 15 9 13.6569 9 12C9 10.3431 10.3431 9 12 9C13.6569 9 15 10.3431 15 12Z" fill="#25282D"/>
<path fill-rule="evenodd" clip-rule="evenodd" d="M14.8026 3.36917C14.1279 0.382149 9.87183 0.382152 9.19711 3.36917C9.06419 3.95759 8.38895 4.23729 7.87889 3.9152C5.28964 2.28015 2.28016 5.28964 3.9152 7.87889C4.23729 8.38895 3.95759 9.06419 3.36917 9.19711C0.382149 9.87183 0.382152 14.1279 3.36917 14.8026C3.95759 14.9355 4.23729 15.6108 3.9152 16.1208C2.28016 18.7101 5.28964 21.7196 7.87889 20.0845C8.38895 19.7624 9.06419 20.0421 9.19711 20.6305C9.87183 23.6176 14.1279 23.6176 14.8026 20.6305C14.9355 20.0421 15.6108 19.7624 16.1208 20.0845C18.7101 21.7196 21.7196 18.7101 20.0845 16.1208C19.7624 15.6108 20.0421 14.9355 20.6305 14.8026C23.6176 14.1279 23.6176 9.87183 20.6305 9.19711C20.0421 9.06419 19.7624 8.38895 20.0845 7.87889C21.7196 5.28964 18.7101 2.28016 16.1208 3.9152C15.6108 4.23729 14.9355 3.95759 14.8026 3.36917ZM11.148 3.80984C11.353 2.90193 12.6467 2.90193 12.8518 3.80984C13.289 5.74573 15.5106 6.66593 17.1887 5.60626C17.9757 5.10928 18.8904 6.02402 18.3935 6.81103C17.3338 8.48912 18.254 10.7107 20.1899 11.148C21.0978 11.353 21.0978 12.6467 20.1899 12.8518C18.254 13.289 17.3338 15.5106 18.3935 17.1887C18.8904 17.9757 17.9757 18.8904 17.1887 18.3935C15.5106 17.3338 13.289 18.254 12.8518 20.1899C12.6467 21.0978 11.353 21.0978 11.148 20.1899C10.7107 18.254 8.48912 17.3338 6.81103 18.3935C6.02402 18.8904 5.10928 17.9757 5.60626 17.1887C6.66593 15.5106 5.74573 13.289 3.80984 12.8518C2.90193 12.6467 2.90193 11.353 3.80984 11.148C5.74573 10.7107 6.66593 8.48912 5.60626 6.81103C5.10928 6.02402 6.02402 5.10928 6.81103 5.60626C8.48912 6.66593 10.7107 5.74574 11.148 3.80984Z" fill="#25282D"/>
</svg>
