<svg width="24" height="24" viewBox="0 0 24 24" fill="none" xmlns="http://www.w3.org/2000/svg">
<path fill-rule="evenodd" clip-rule="evenodd" d="M15 10C15 10.5523 15.4477 11 16 11H18C18.5523 11 19 11.4477 19 12V20C19 20.5523 18.5523 21 18 21H6C5.44772 21 5 20.5523 5 20V12C5 11.4477 5.44772 11 6 11H8C8.55228 11 9 10.5523 9 10C9 9.44772 8.55228 9 8 9H6C4.34315 9 3 10.3431 3 12V20C3 21.6569 4.34315 23 6 23H18C19.6569 23 21 21.6569 21 20V12C21 10.3431 19.6569 9 18 9H16C15.4477 9 15 9.44772 15 10Z" fill="#25282D"/>
<path fill-rule="evenodd" clip-rule="evenodd" d="M11.2929 1.29289C11.6834 0.902369 12.3166 0.902369 12.7071 1.29289L16.7071 5.29289C17.0976 5.68342 17.0976 6.31658 16.7071 6.70711C16.3166 7.09763 15.6834 7.09763 15.2929 6.70711L13 4.41421V14.5C13 15.0523 12.5523 15.5 12 15.5C11.4477 15.5 11 15.0523 11 14.5V4.41421L8.70711 6.70711C8.31658 7.09763 7.68342 7.09763 7.29289 6.70711C6.90237 6.31658 6.90237 5.68342 7.29289 5.29289L11.2929 1.29289Z" fill="#25282D"/>
</svg>
