<svg width="24" height="24" viewBox="0 0 24 24" fill="none" xmlns="http://www.w3.org/2000/svg">
<path d="M16.4999 16.0956C16.3476 16.0954 16.1991 16.0488 16.0739 15.9621C15.9488 15.8754 15.853 15.7527 15.7992 15.6102C15.7455 15.4678 15.7364 15.3124 15.7731 15.1646C15.8099 15.0169 15.8907 14.8838 16.0049 14.7831C16.394 14.4315 16.7051 14.0022 16.918 13.5229C17.1309 13.0436 17.2409 12.525 17.2409 12.0006C17.2409 11.4761 17.1309 10.9575 16.918 10.4782C16.7051 9.99896 16.394 9.56967 16.0049 9.21808C15.931 9.15258 15.8708 9.07318 15.8276 8.9844C15.7844 8.89562 15.7592 8.7992 15.7532 8.70066C15.7413 8.50164 15.8089 8.30601 15.9411 8.15683C16.0734 8.00765 16.2595 7.91712 16.4586 7.90516C16.6576 7.89321 16.8532 7.9608 17.0024 8.09308C17.5511 8.58545 17.99 9.18787 18.2904 9.86112C18.5909 10.5344 18.7461 11.2633 18.7461 12.0006C18.7461 12.7378 18.5909 13.4668 18.2904 14.14C17.99 14.8133 17.5511 15.4157 17.0024 15.9081C16.8637 16.0304 16.6848 16.0972 16.4999 16.0956Z" fill="#25282D"/>
<path d="M19.1627 18.7503C19.0125 18.7498 18.8659 18.7042 18.7419 18.6194C18.6179 18.5346 18.5222 18.4145 18.4673 18.2747C18.4123 18.1349 18.4006 17.9818 18.4337 17.8352C18.4667 17.6887 18.543 17.5555 18.6527 17.4528C19.3949 16.7518 19.9862 15.9066 20.3904 14.969C20.7945 14.0315 21.0029 13.0213 21.0029 12.0003C21.0029 10.9794 20.7945 9.96915 20.3904 9.03158C19.9862 8.09402 19.3949 7.24883 18.6527 6.54781C18.5808 6.48034 18.5229 6.39937 18.4823 6.30953C18.4417 6.21968 18.4192 6.12272 18.416 6.02417C18.4129 5.92563 18.4292 5.82743 18.464 5.73518C18.4988 5.64294 18.5515 5.55846 18.619 5.48656C18.6864 5.41466 18.7674 5.35675 18.8572 5.31615C18.9471 5.27554 19.044 5.25303 19.1426 5.24989C19.2411 5.24676 19.3393 5.26306 19.4316 5.29788C19.5238 5.3327 19.6083 5.38534 19.6802 5.45281C20.5723 6.29415 21.2831 7.30891 21.7689 8.43483C22.2546 9.56075 22.5052 10.7741 22.5052 12.0003C22.5052 13.2266 22.2546 14.4399 21.7689 15.5658C21.2831 16.6917 20.5723 17.7065 19.6802 18.5478C19.54 18.6791 19.3548 18.7516 19.1627 18.7503Z" fill="#25282D"/>
<path d="M11.7942 4.57573C12.9942 3.87692 14.5 4.74256 14.5 6.1312V17.8688C14.5 19.2574 12.9942 20.1231 11.7942 19.4242L5.39417 15.6972C4.84053 15.3748 4.5 14.7824 4.5 14.1417V9.85826C4.5 9.21759 4.84054 8.6252 5.39417 8.30279L11.7942 4.57573Z" fill="#25282D"/>
<path d="M1.5 9.5C1.5 8.39543 2.39543 7.5 3.5 7.5H7.5C8.60457 7.5 9.5 8.39543 9.5 9.5V14.5C9.5 15.6046 8.60457 16.5 7.5 16.5H3.5C2.39543 16.5 1.5 15.6046 1.5 14.5V9.5Z" fill="#25282D"/>
</svg>
