<svg width="24" height="24" viewBox="0 0 24 24" fill="none" xmlns="http://www.w3.org/2000/svg">
<path d="M12 1C9.82441 1 7.69767 1.64514 5.88873 2.85383C4.07979 4.06253 2.66989 5.7805 1.83733 7.79048C1.00477 9.80047 0.786929 12.0122 1.21137 14.146C1.6358 16.2798 2.68345 18.2398 4.22183 19.7782C5.76021 21.3166 7.72022 22.3642 9.85401 22.7886C11.9878 23.2131 14.1995 22.9952 16.2095 22.1627C18.2195 21.3301 19.9375 19.9202 21.1462 18.1113C22.3549 16.3023 23 14.1756 23 12C23 9.08262 21.8411 6.28473 19.7782 4.22183C17.7153 2.15893 14.9174 1 12 1ZM12 21C10.22 21 8.47991 20.4722 6.99987 19.4832C5.51983 18.4943 4.36628 17.0887 3.68509 15.4442C3.0039 13.7996 2.82567 11.99 3.17294 10.2442C3.5202 8.49836 4.37737 6.89471 5.63604 5.63604C6.89472 4.37737 8.49836 3.5202 10.2442 3.17293C11.99 2.82567 13.7996 3.0039 15.4442 3.68508C17.0887 4.36627 18.4943 5.51982 19.4832 6.99987C20.4722 8.47991 21 10.22 21 12C21 14.3869 20.0518 16.6761 18.364 18.364C16.6761 20.0518 14.387 21 12 21Z" fill="#25282D"/>
<path d="M18.94 9.31004C18.9505 9.22703 18.9505 9.14304 18.94 9.06004V9.00004C18.9396 8.89387 18.9192 8.78872 18.88 8.69004C18.8385 8.57778 18.7738 8.47555 18.69 8.39004L15.69 5.39004C15.5968 5.2968 15.4861 5.22284 15.3643 5.17238C15.2425 5.12192 15.1119 5.09595 14.98 5.09595C14.8482 5.09595 14.7176 5.12192 14.5958 5.17238C14.474 5.22284 14.3633 5.2968 14.27 5.39004C14.1768 5.48328 14.1028 5.59397 14.0524 5.71579C14.0019 5.83761 13.976 5.96818 13.976 6.10004C13.976 6.2319 14.0019 6.36247 14.0524 6.48429C14.1028 6.60611 14.1768 6.7168 14.27 6.81004L15.59 8.00004H12C11.7348 8.00004 11.4805 8.1054 11.2929 8.29293C11.1054 8.48047 11 8.73482 11 9.00004C11 9.26526 11.1054 9.51961 11.2929 9.70715C11.4805 9.89468 11.7348 10 12 10H15.59L14.29 11.29C14.1963 11.383 14.1219 11.4936 14.0712 11.6155C14.0204 11.7373 13.9943 11.868 13.9943 12C13.9943 12.1321 14.0204 12.2628 14.0712 12.3846C14.1219 12.5065 14.1963 12.6171 14.29 12.71C14.383 12.8038 14.4936 12.8782 14.6155 12.9289C14.7373 12.9797 14.868 13.0058 15 13.0058C15.1321 13.0058 15.2628 12.9797 15.3846 12.9289C15.5065 12.8782 15.6171 12.8038 15.71 12.71L18.71 9.71004C18.7908 9.62218 18.8551 9.52057 18.9 9.41004C18.9193 9.37939 18.9329 9.34551 18.94 9.31004ZM12 14H8.41005L9.71005 12.71C9.89835 12.5217 10.0041 12.2663 10.0041 12C10.0041 11.7337 9.89835 11.4783 9.71005 11.29C9.52174 11.1017 9.26635 10.9959 9.00005 10.9959C8.73375 10.9959 8.47835 11.1017 8.29005 11.29L5.29005 14.29C5.20932 14.3779 5.14498 14.4795 5.10005 14.59C5.09445 14.6231 5.09445 14.6569 5.10005 14.69C5.07278 14.7709 5.05598 14.8549 5.05005 14.94V15C5.05051 15.1062 5.07086 15.2114 5.11005 15.31C5.15155 15.4223 5.2163 15.5245 5.30005 15.61L8.30005 18.61C8.39301 18.7038 8.50361 18.7782 8.62547 18.8289C8.74733 18.8797 8.87804 18.9058 9.01005 18.9058C9.14206 18.9058 9.27277 18.8797 9.39463 18.8289C9.51648 18.7782 9.62709 18.7038 9.72005 18.61C9.81378 18.5171 9.88817 18.4065 9.93894 18.2846C9.98971 18.1628 10.0158 18.0321 10.0158 17.9C10.0158 17.768 9.98971 17.6373 9.93894 17.5155C9.88817 17.3936 9.81378 17.283 9.72005 17.19L8.41005 16H12C12.2653 16 12.5196 15.8947 12.7072 15.7071C12.8947 15.5196 13 15.2653 13 15C13 14.7348 12.8947 14.4805 12.7072 14.2929C12.5196 14.1054 12.2653 14 12 14Z" fill="#25282D"/>
</svg>
