<svg width="24" height="24" viewBox="0 0 24 24" fill="none" xmlns="http://www.w3.org/2000/svg">
<path d="M12 1C9.82441 1 7.69767 1.64514 5.88873 2.85383C4.07979 4.06253 2.66989 5.7805 1.83733 7.79048C1.00477 9.80047 0.786929 12.0122 1.21137 14.146C1.6358 16.2798 2.68345 18.2398 4.22183 19.7782C5.76021 21.3166 7.72022 22.3642 9.85401 22.7886C11.9878 23.2131 14.1995 22.9952 16.2095 22.1627C18.2195 21.3301 19.9375 19.9202 21.1462 18.1113C22.3549 16.3023 23 14.1756 23 12C23 9.08262 21.8411 6.28473 19.7782 4.22183C17.7153 2.15893 14.9174 1 12 1ZM12 16H8.41L9.71 17.29C9.80373 17.383 9.87813 17.4936 9.9289 17.6154C9.97966 17.7373 10.0058 17.868 10.0058 18C10.0058 18.132 9.97966 18.2627 9.9289 18.3846C9.87813 18.5064 9.80373 18.617 9.71 18.71C9.61704 18.8037 9.50644 18.8781 9.38458 18.9289C9.26272 18.9797 9.13202 19.0058 9 19.0058C8.86799 19.0058 8.73729 18.9797 8.61543 18.9289C8.49357 18.8781 8.38297 18.8037 8.29 18.71L5.29 15.71C5.20626 15.6245 5.14151 15.5223 5.10001 15.41C5.03274 15.2839 4.99834 15.1429 5 15V14.9C5.00594 14.8149 5.02274 14.7309 5.05 14.65C5.04441 14.6169 5.04441 14.5831 5.05 14.55C5.09493 14.4395 5.15928 14.3379 5.24 14.25L8.24 11.25C8.42831 11.0617 8.6837 10.9559 8.95 10.9559C9.21631 10.9559 9.4717 11.0617 9.66 11.25C9.84831 11.4383 9.9541 11.6937 9.9541 11.96C9.9541 12.2263 9.84831 12.4817 9.66 12.67L8.41 14H12C12.2652 14 12.5196 14.1054 12.7071 14.2929C12.8946 14.4804 13 14.7348 13 15C13 15.2652 12.8946 15.5196 12.7071 15.7071C12.5196 15.8946 12.2652 16 12 16ZM19 9.06C19.0105 9.14301 19.0105 9.227 19 9.31C19.0056 9.3431 19.0056 9.3769 19 9.41C18.9551 9.52053 18.8907 9.62214 18.81 9.71L15.81 12.71C15.717 12.8037 15.6064 12.8781 15.4846 12.9289C15.3627 12.9797 15.232 13.0058 15.1 13.0058C14.968 13.0058 14.8373 12.9797 14.7154 12.9289C14.5936 12.8781 14.483 12.8037 14.39 12.71C14.2963 12.617 14.2219 12.5064 14.1711 12.3846C14.1203 12.2627 14.0942 12.132 14.0942 12C14.0942 11.868 14.1203 11.7373 14.1711 11.6154C14.2219 11.4936 14.2963 11.383 14.39 11.29L15.59 10H12C11.7348 10 11.4804 9.89464 11.2929 9.70711C11.1054 9.51957 11 9.26522 11 9C11 8.73478 11.1054 8.48043 11.2929 8.29289C11.4804 8.10536 11.7348 8 12 8H15.59L14.29 6.71C14.1968 6.61676 14.1228 6.50607 14.0723 6.38425C14.0219 6.26243 13.9959 6.13186 13.9959 6C13.9959 5.7337 14.1017 5.4783 14.29 5.29C14.4783 5.1017 14.7337 4.99591 15 4.99591C15.1319 4.99591 15.2624 5.02188 15.3843 5.07234C15.5061 5.1228 15.6168 5.19676 15.71 5.29L18.71 8.29C18.7938 8.37551 18.8585 8.47774 18.9 8.59C18.9673 8.71609 19.0017 8.8571 19 9V9.06Z" fill="#25282D"/>
</svg>
