<svg width="24" height="24" viewBox="0 0 24 24" fill="none" xmlns="http://www.w3.org/2000/svg">
<path fill-rule="evenodd" clip-rule="evenodd" d="M12 7.32721C11.4036 7.32721 10.8383 7.06104 10.4584 6.60131C9.07662 4.92942 7.48573 4.75821 6.31197 5.22607C5.07922 5.71745 4 7.03452 4 9.01499C4 9.74225 4.28337 10.6479 4.90623 11.711C5.52017 12.759 6.38647 13.8281 7.35673 14.8441C9.09158 16.6606 11.0112 18.1551 12.0008 18.8833C13.3939 17.8918 15.3615 16.4614 17.029 14.7201C18.8599 12.8079 20 10.8568 20 9.01522C20 7.0346 18.9207 5.71748 17.688 5.2261C16.5143 4.75822 14.9234 4.92942 13.5416 6.60131C13.1617 7.06104 12.5964 7.32721 12 7.32721ZM10.5279 3.96986C11.0433 4.31979 11.5391 4.76952 12 5.32721C12.4609 4.76952 12.9567 4.31979 13.4721 3.96986C17.2168 1.42745 22 4.15276 22 9.01522C22 14.2349 15.7445 18.6777 12.94 20.6695L12.8703 20.719C12.6118 20.9026 12.3057 21 11.9887 21C11.6857 21 11.3928 20.9114 11.1466 20.7349C9.37882 19.4672 2 13.8839 2 9.01499C2 4.15272 6.78316 1.42744 10.5279 3.96986Z" fill="currentColor"/>
</svg>
