<svg width="24" height="24" viewBox="0 0 24 24" fill="none" xmlns="http://www.w3.org/2000/svg">
<path d="M11.137 2.34387L2.62451 10.4084C2.22583 10.7861 2 11.3111 2 11.8603V20C2 21.1046 2.89543 22 4 22H8.5C9.05228 22 9.5 21.5523 9.5 21V17.5C9.5 16.3954 10.3954 15.5 11.5 15.5H12.5C13.6046 15.5 14.5 16.3954 14.5 17.5V21C14.5 21.5523 14.9477 22 15.5 22H20C21.1046 22 22 21.1046 22 20V11.8603C22 11.3111 21.7742 10.7861 21.3755 10.4084L12.863 2.34387C12.6299 2.12307 12.3211 2 12 2C11.6789 2 11.3701 2.12307 11.137 2.34387Z" fill="currentColor"/>
</svg>
