<svg width="24" height="24" viewBox="0 0 24 24" fill="none" xmlns="http://www.w3.org/2000/svg">
<path d="M13 2C13.5523 2 14 2.44772 14 3C14 3.55228 13.5523 4 13 4H5C4.44771 4 4 4.44772 4 5V19C4 19.5523 4.44772 20 5 20H19C19.5523 20 20 19.5523 20 19V11C20 10.4477 20.4477 10 21 10C21.5523 10 22 10.4477 22 11V19C22 20.6569 20.6569 22 19 22H5C3.34315 22 2 20.6569 2 19V5C2 3.34315 3.34315 2 5 2H13ZM20.8398 5.28223L10.1719 15.9492C9.98435 16.1367 9.73002 16.2422 9.46484 16.2422H8.25781C7.98174 16.2421 7.75781 16.0183 7.75781 15.7422V14.5352C7.75781 14.27 7.86329 14.0157 8.05078 13.8281L18.7178 3.16113L20.8398 5.28223ZM19.4248 2.4541C19.8153 2.0636 20.4483 2.06365 20.8389 2.4541L21.5459 3.16113C21.9364 3.55166 21.9364 4.18467 21.5459 4.5752L21.1924 4.92871L19.0713 2.80762L19.4248 2.4541Z" fill="currentColor"/>
</svg>
