<svg width="24" height="24" viewBox="0 0 24 24" fill="none" xmlns="http://www.w3.org/2000/svg">
<circle cx="12" cy="12" r="11" fill="#4785FF"/>
<path fill-rule="evenodd" clip-rule="evenodd" d="M6.70173 7.54579C7.22887 7.38105 7.78975 7.67485 7.95448 8.20199L8.51644 10.0003H10.4836L11.0455 8.20199C11.176 7.78452 11.5626 7.50027 12 7.50027C12.4374 7.50027 12.824 7.78452 12.9545 8.20199L13.5164 10.0003H15.4836L16.0455 8.20199C16.2103 7.67485 16.7711 7.38105 17.2983 7.54579C17.8254 7.71052 18.1192 8.2714 17.9545 8.79854L17.5789 10.0003H18C18.5523 10.0003 19 10.448 19 11.0003C19 11.5526 18.5523 12.0003 18 12.0003H16.9539L15.4545 16.7985C15.324 17.216 14.9374 17.5003 14.5 17.5003C14.0626 17.5003 13.676 17.216 13.5455 16.7985L12.0461 12.0003H11.9539L10.4545 16.7985C10.324 17.216 9.93739 17.5003 9.5 17.5003C9.06261 17.5003 8.67598 17.216 8.54552 16.7985L7.04606 12.0003H6C5.44772 12.0003 5 11.5526 5 11.0003C5 10.448 5.44772 10.0003 6 10.0003H6.42106L6.04552 8.79854C5.88079 8.2714 6.17458 7.71052 6.70173 7.54579ZM9.14144 12.0003L9.5 13.5L9.85856 12.0003H9.14144ZM14.1414 12.0003L14.5 13.5L14.8586 12.0003H14.1414Z" fill="white"/>
</svg>
