<svg width="24" height="24" viewBox="0 0 24 24" fill="none" xmlns="http://www.w3.org/2000/svg">
<path d="M3 6.5C3 5.39543 3.89543 4.5 5 4.5H21C22.1046 4.5 23 5.39543 23 6.5V14.5C23 15.6046 22.1046 16.5 21 16.5H5C3.89543 16.5 3 15.6046 3 14.5V6.5Z" fill="#FFE066"/>
<path d="M3 6.5C1.89543 6.5 1 7.39543 1 8.5V10C1 10.2761 1.22733 10.4936 1.49494 10.5617C2.36012 10.782 3 11.5663 3 12.5C3 13.4337 2.36012 14.218 1.49494 14.4383C1.22733 14.5064 1 14.7239 1 15V16.5C1 17.6046 1.89543 18.5 3 18.5H19C20.1046 18.5 21 17.6046 21 16.5V8.5C21 7.39543 20.1046 6.5 19 6.5H3Z" fill="#FFB200"/>
<path d="M15.5 6.5H16.5V8.5C16.5 8.77614 16.2761 9 16 9C15.7239 9 15.5 8.77614 15.5 8.5V6.5Z" fill="white"/>
<path d="M15.5 16.5C15.5 16.2239 15.7239 16 16 16C16.2761 16 16.5 16.2239 16.5 16.5V18.5H15.5V16.5Z" fill="white"/>
<path d="M15.5 10.5C15.5 10.2239 15.7239 10 16 10C16.2761 10 16.5 10.2239 16.5 10.5V11.5C16.5 11.7761 16.2761 12 16 12C15.7239 12 15.5 11.7761 15.5 11.5V10.5Z" fill="white"/>
<path d="M15.5 13.5C15.5 13.2239 15.7239 13 16 13C16.2761 13 16.5 13.2239 16.5 13.5V14.5C16.5 14.7761 16.2761 15 16 15C15.7239 15 15.5 14.7761 15.5 14.5V13.5Z" fill="white"/>
<path d="M6 10C6 9.72386 6.22386 9.5 6.5 9.5H13C13.2761 9.5 13.5 9.72386 13.5 10C13.5 10.2761 13.2761 10.5 13 10.5H6.5C6.22386 10.5 6 10.2761 6 10Z" fill="white"/>
<path d="M6 12.5C6 12.2239 6.22386 12 6.5 12H13C13.2761 12 13.5 12.2239 13.5 12.5C13.5 12.7761 13.2761 13 13 13H6.5C6.22386 13 6 12.7761 6 12.5Z" fill="white"/>
<path d="M6 15C6 14.7239 6.22386 14.5 6.5 14.5H13C13.2761 14.5 13.5 14.7239 13.5 15C13.5 15.2761 13.2761 15.5 13 15.5H6.5C6.22386 15.5 6 15.2761 6 15Z" fill="white"/>
</svg>
