<svg width="14" height="22" viewBox="0 0 14 22" fill="none" xmlns="http://www.w3.org/2000/svg">
<path d="M5.5 13.5C5.5 12.6716 6.17157 12 7 12C7.82843 12 8.5 12.6716 8.5 13.5V20.5C8.5 21.3284 7.82843 22 7 22C6.17157 22 5.5 21.3284 5.5 20.5V13.5Z" fill="#FF8F8F"/>
<path d="M10 15.5C10.8284 15.5 11.5 16.1716 11.5 17C11.5 17.8284 10.8284 18.5 10 18.5L4 18.5C3.17157 18.5 2.5 17.8284 2.5 17C2.5 16.1716 3.17157 15.5 4 15.5L10 15.5Z" fill="#FF8F8F"/>
<path d="M5.5 12.5H8.5V15.5H5.5V12.5Z" fill="#D36666"/>
<path fill-rule="evenodd" clip-rule="evenodd" d="M7 11C9.20914 11 11 9.20914 11 7C11 4.79086 9.20914 3 7 3C4.79086 3 3 4.79086 3 7C3 9.20914 4.79086 11 7 11ZM7 14C10.866 14 14 10.866 14 7C14 3.13401 10.866 0 7 0C3.13401 0 0 3.13401 0 7C0 10.866 3.13401 14 7 14Z" fill="#FF8F8F"/>
</svg>
