<svg width="24" height="24" viewBox="0 0 24 24" fill="none" xmlns="http://www.w3.org/2000/svg">
<path d="M20.4792 3.75H3.52083C2.85242 3.75049 2.21151 4.01623 1.73887 4.48887C1.26623 4.96151 1.00049 5.60242 1 6.27083L1 17.7292C1.00049 18.3976 1.26623 19.0385 1.73887 19.5111C2.21151 19.9838 2.85242 20.2495 3.52083 20.25H20.4792C21.1476 20.2495 21.7885 19.9838 22.2611 19.5111C22.7338 19.0385 22.9995 18.3976 23 17.7292V6.27083C22.9995 5.60242 22.7338 4.96151 22.2611 4.48887C21.7885 4.01623 21.1476 3.75049 20.4792 3.75Z" fill="#F1F2F4"/>
<path d="M7.87467 12.0003C9.14033 12.0003 10.1663 10.9743 10.1663 9.70866C10.1663 8.44301 9.14033 7.41699 7.87467 7.41699C6.60902 7.41699 5.58301 8.44301 5.58301 9.70866C5.58301 10.9743 6.60902 12.0003 7.87467 12.0003Z" fill="#4785FF"/>
<path d="M12 15.8962C12 16.0785 11.9276 16.2534 11.7986 16.3823C11.6697 16.5112 11.4948 16.5837 11.3125 16.5837H4.4375C4.25516 16.5837 4.0803 16.5112 3.95136 16.3823C3.82243 16.2534 3.75 16.0785 3.75 15.8962V15.4378C3.75049 14.7694 4.01623 14.1285 4.48887 13.6559C4.96151 13.1832 5.60242 12.9175 6.27083 12.917H9.47917C10.1476 12.9175 10.7885 13.1832 11.2611 13.6559C11.7338 14.1285 11.9995 14.7694 12 15.4378V15.8962Z" fill="#4785FF"/>
<path d="M19.5622 16.5833H14.5205C14.3382 16.5833 14.1633 16.5109 14.0344 16.382C13.9054 16.253 13.833 16.0782 13.833 15.8958C13.833 15.7135 13.9054 15.5386 14.0344 15.4097C14.1633 15.2808 14.3382 15.2083 14.5205 15.2083H19.5622C19.7445 15.2083 19.9194 15.2808 20.0483 15.4097C20.1772 15.5386 20.2497 15.7135 20.2497 15.8958C20.2497 16.0782 20.1772 16.253 20.0483 16.382C19.9194 16.5109 19.7445 16.5833 19.5622 16.5833ZM19.5622 12.9167H14.5205C14.3382 12.9167 14.1633 12.8442 14.0344 12.7153C13.9054 12.5864 13.833 12.4115 13.833 12.2292C13.833 12.0468 13.9054 11.872 14.0344 11.743C14.1633 11.6141 14.3382 11.5417 14.5205 11.5417H19.5622C19.7445 11.5417 19.9194 11.6141 20.0483 11.743C20.1772 11.872 20.2497 12.0468 20.2497 12.2292C20.2497 12.4115 20.1772 12.5864 20.0483 12.7153C19.9194 12.8442 19.7445 12.9167 19.5622 12.9167ZM19.5622 9.25H14.5205C14.3382 9.25 14.1633 9.17757 14.0344 9.04864C13.9054 8.9197 13.833 8.74484 13.833 8.5625C13.833 8.38016 13.9054 8.2053 14.0344 8.07636C14.1633 7.94743 14.3382 7.875 14.5205 7.875H19.5622C19.7445 7.875 19.9194 7.94743 20.0483 8.07636C20.1772 8.2053 20.2497 8.38016 20.2497 8.5625C20.2497 8.74484 20.1772 8.9197 20.0483 9.04864C19.9194 9.17757 19.7445 9.25 19.5622 9.25Z" fill="#686B73"/>
</svg>
