<svg width="24" height="24" viewBox="0 0 24 24" fill="none" xmlns="http://www.w3.org/2000/svg">
<path d="M15.5416 21.6887C14.0743 23.1426 11.5756 22.5582 10.9194 20.6076L10.2204 18.53C10.1227 18.2396 9.95956 17.9755 9.7436 17.7582L7.64664 15.6476C7.55278 15.5531 7.42511 15.5 7.29194 15.5H5.93053C5.41662 15.5 5 15.0507 5 14.5415V3.47811C5 2.96894 5.41662 2.5 5.93053 2.5H18.7057C20.0141 2.5 21.147 3.45647 21.4309 4.72201L22.9174 11.3496C23.3908 13.4608 21.7695 15.4635 19.5867 15.4635H16.4001C16.0798 15.4635 15.8421 15.7604 15.9122 16.0729L16.5429 18.8851C16.75 19.8083 16.4666 20.7722 15.7918 21.4409L15.5416 21.6887Z" fill="#FBC9AD"/>
<path d="M1 3.5C1 2.94772 1.44772 2.5 2 2.5H7V15.5H2C1.44772 15.5 1 15.0523 1 14.5V3.5Z" fill="#474A52"/>
</svg>
