<svg width="24" height="24" viewBox="0 0 24 24" fill="none" xmlns="http://www.w3.org/2000/svg">
<path d="M15.5416 2.31131C14.0743 0.857441 11.5756 1.44185 10.9194 3.39243L10.2204 5.46997C10.1227 5.76038 9.95956 6.02446 9.7436 6.24182L7.64664 8.35241C7.55278 8.44688 7.42511 8.5 7.29194 8.5H5.93053C5.41662 8.5 5 8.94929 5 9.45845V20.5219C5 21.0311 5.41662 21.5 5.93053 21.5H18.7057C20.0141 21.5 21.147 20.5435 21.4309 19.278L22.9174 12.6504C23.3908 10.5392 21.7695 8.5365 19.5867 8.5365H16.4001C16.0798 8.5365 15.8421 8.23959 15.9122 7.92708L16.5429 5.11486C16.75 4.19173 16.4666 3.22778 15.7918 2.55911L15.5416 2.31131Z" fill="#FBC9AD"/>
<path d="M1 9.5C1 8.94772 1.44772 8.5 2 8.5H7V21.5H2C1.44772 21.5 1 21.0523 1 20.5V9.5Z" fill="#2F6EFF"/>
</svg>
