<svg width="19" height="19" viewBox="0 0 19 19" fill="none" xmlns="http://www.w3.org/2000/svg">
<path d="M17 0.125C18.0355 0.125 18.875 0.964466 18.875 2V8C18.875 8.75939 18.2594 9.375 17.5 9.375C16.7406 9.375 16.125 8.75939 16.125 8V4.99609L13.0664 8.05371C14.8051 10.7633 14.4917 14.4086 12.122 16.7783C9.38851 19.5118 4.95631 19.5115 2.22262 16.7783C-0.511054 14.0447 -0.511054 9.6116 2.22262 6.87793C4.59198 4.50898 8.236 4.1949 10.9453 5.93262L14.0039 2.875H11C10.2406 2.875 9.62496 2.25939 9.62496 1.5C9.62496 0.740608 10.2406 0.125 11 0.125H17ZM9.99996 9C8.43786 7.43794 5.90579 7.43792 4.34371 9C2.78167 10.5621 2.78167 13.0942 4.34371 14.6562C5.90579 16.2183 8.43786 16.2183 9.99996 14.6562C11.5621 13.0942 11.5621 10.5621 9.99996 9Z" fill="#93D8CC"/>
</svg>
